<svg width="59" height="51" viewBox="0 0 59 51" fill="none" xmlns="http://www.w3.org/2000/svg">
<path d="M29.1342 0C13.1624 0 0.21875 6.3745 0.21875 14.2388C0.21875 22.103 13.1624 28.4794 29.1342 28.4794C45.106 28.4794 58.0497 22.103 58.0497 14.2388C58.0497 6.3745 45.1042 0 29.1342 0ZM29.1342 11.9405C24.0997 11.9405 20.0179 10.7277 20.0179 9.23049C20.0179 7.73325 24.0997 6.52048 29.1342 6.52048C34.1687 6.52048 38.2505 7.73512 38.2505 9.23049C38.2505 10.7259 34.1687 11.9405 29.1342 11.9405Z" fill="#EE702A"/>
<path d="M1.75714 30.7102C1.75714 30.7102 28.7075 46.0869 56.3653 30.7102C56.3653 30.7102 60.6024 36.1377 55.6391 42.4748C50.6757 48.8118 34.7488 50.47 29.1286 50.2436C23.5083 50.0171 -5.8058 49.0346 1.75714 30.7102Z" fill="#EE702A"/>
<path d="M57.408 24.9816C57.2826 25.3915 56.4722 27.57 52.7422 30.1883C50.7864 31.5639 49.2274 31.0379 47.9754 30.615C46.3153 30.0535 44.4344 29.4209 39.7125 32.6849C39.4112 32.8945 39.151 33.0929 38.9077 33.2688C37.9719 33.9594 37.0998 34.6107 35.2507 35.1198C33.4944 35.62 31.6792 35.8837 29.8532 35.904C26.4076 35.904 24.6297 34.811 24.4369 34.6875C24.0582 34.4196 23.6992 34.125 23.3626 33.806C21.8148 32.4117 19.4791 30.3043 12.9998 31.3954C8.01777 32.2376 4.77811 30.4989 2.93838 28.8931C1.72844 27.8466 0.760352 26.5496 0.101109 25.092C-0.0376254 24.7466 -0.0334397 24.3601 0.112745 24.0177C0.25893 23.6754 0.535139 23.4051 0.88061 23.2663C1.22608 23.1276 1.61251 23.1318 1.9549 23.278C2.29728 23.4241 2.56757 23.7004 2.70631 24.0458C2.80363 24.2816 5.18611 29.8664 12.5338 28.6274C20.3494 27.3173 23.4113 30.0704 25.2417 31.7192C25.4716 31.9377 25.7141 32.1427 25.9678 32.3331C26.155 32.4323 28.9829 33.9276 34.5077 32.4117C35.8496 32.0374 36.3699 31.663 37.2327 31.0155C37.491 30.8283 37.781 30.6075 38.1161 30.3754C43.9965 26.3104 46.815 27.2612 48.8718 27.9555C49.9686 28.3298 50.3373 28.4496 51.1271 27.8919C54.0074 25.8669 54.683 24.2386 54.7317 24.13C54.8162 23.8669 54.9767 23.6347 55.1929 23.4626C55.4092 23.2906 55.6716 23.1864 55.9469 23.1632C56.2223 23.1399 56.4984 23.1987 56.7404 23.3322C56.9825 23.4656 57.1796 23.6677 57.3069 23.913C57.4805 24.2418 57.5168 24.626 57.408 24.9816Z" fill="#EE702A"/>
</svg>
