<svg width="24" height="24" viewBox="0 0 24 24" fill="none" xmlns="http://www.w3.org/2000/svg">
<path d="M23.0771 0.332429C22.8541 0.184938 22.6048 0.0836642 22.3433 0.0343939C22.0819 -0.0148764 21.8135 -0.011178 21.5535 0.0452778C21.2934 0.101734 21.0469 0.20984 20.8278 0.363423C20.6088 0.517005 20.4216 0.713054 20.277 0.940368L8.93183 18.7597L3.39897 13.5469C3.20376 13.3629 2.97492 13.22 2.7255 13.1262C2.47608 13.0324 2.21097 12.9896 1.94531 13.0002C1.40878 13.0216 0.902575 13.2593 0.538051 13.661C0.173526 14.0627 -0.0194583 14.5956 0.0015522 15.1423C0.0225627 15.689 0.255847 16.2048 0.650085 16.5762L7.91475 23.4204C7.91475 23.4204 8.1233 23.6033 8.21981 23.6673C8.44285 23.8149 8.69226 23.9162 8.95377 23.9655C9.21527 24.0149 9.48376 24.0112 9.74388 23.9547C10.004 23.8983 10.2506 23.7901 10.4697 23.6365C10.6888 23.4829 10.876 23.2867 11.0207 23.0593L23.6738 3.18576C23.8185 2.9585 23.9179 2.70442 23.9662 2.43802C24.0146 2.17162 24.011 1.89812 23.9556 1.63315C23.9002 1.36817 23.7941 1.11692 23.6433 0.89374C23.4926 0.67056 23.3002 0.479824 23.0771 0.332429Z" fill="#31373D"/>
</svg>
