<svg width="59" height="52" viewBox="0 0 59 52" fill="none" xmlns="http://www.w3.org/2000/svg">
<path d="M2.99756 43.9255L1.15234 41.8789C0.191307 40.8155 -0.201442 39.3092 0.0989432 37.8518C0.386353 36.4593 1.24633 35.339 2.45809 34.7814L9.4957 31.5374C14.3948 29.2775 18.4501 25.4231 21.225 20.3853L23.3359 16.5502C26.2754 11.2088 30.5881 7.11161 35.8111 4.70752L45.2876 0.341174C46.8038 -0.350698 48.599 0.0285516 49.7515 1.30788L53.2335 5.16843L42.5259 10.1005C36.8328 12.724 32.135 17.1828 28.937 22.9995L26.6974 27.0654C23.8335 32.2676 19.6475 36.249 14.59 38.583L2.99756 43.9255ZM57.6963 10.122L55.5099 7.69765L43.9031 13.0482C38.8487 15.3781 34.6627 19.3565 31.7958 24.5557L29.5582 28.6295C26.3571 34.4462 21.6562 38.9081 15.9591 41.5285L5.28213 46.4473L9.10642 50.6867C9.87373 51.543 10.8403 52 12.005 52C12.5351 52 13.0687 51.8873 13.5713 51.6572L23.0478 47.2909C28.2718 44.8848 32.5845 40.7876 35.523 35.4482L37.6339 31.613C40.4037 26.5794 44.459 22.726 49.3632 20.461L56.4008 17.217C57.6126 16.6598 58.4729 15.5391 58.76 14.1466C58.9633 12.6023 58.6568 11.1804 57.6963 10.122Z" fill="#F8A700"/>
</svg>
