<svg width="7" height="13" viewBox="0 0 7 13" fill="none" xmlns="http://www.w3.org/2000/svg">
<path d="M5.48969 12.2736C5.63463 12.4186 5.81911 12.4976 6.03652 12.4976C6.47136 12.4976 6.82054 12.155 6.82054 11.7202C6.82054 11.5028 6.72831 11.3051 6.57677 11.1536L1.96489 6.64714L6.57677 2.15385C6.72831 2.00232 6.82054 1.79807 6.82054 1.58725C6.82054 1.15241 6.47136 0.809814 6.03652 0.809814C5.81911 0.809814 5.63463 0.888875 5.48969 1.03382L0.363909 6.04101C0.179434 6.21231 0.0937848 6.42313 0.0871964 6.65373C0.0871964 6.88432 0.179434 7.08197 0.363909 7.25986L5.48969 12.2736Z" fill="black"/>
</svg>
