<svg width="111" height="53" viewBox="0 0 111 53" fill="none" xmlns="http://www.w3.org/2000/svg">
<path d="M84.3051 17.6443H84.1549C83.6161 17.6023 83.116 17.3485 82.764 16.9385C82.4121 16.5284 82.237 15.9956 82.2771 15.4567L83.2489 1.89482C83.2683 1.62728 83.3402 1.36618 83.4605 1.12643C83.5809 0.886676 83.7472 0.672973 83.9501 0.49752C84.1531 0.322067 84.3885 0.188299 84.6432 0.103854C84.8978 0.0194087 85.1665 -0.0140593 85.4341 0.00535945C85.7016 0.0247782 85.9627 0.0967025 86.2025 0.217029C86.4422 0.337355 86.6559 0.503726 86.8314 0.706641C87.0068 0.909557 87.1406 1.14504 87.225 1.39966C87.3095 1.65427 87.3429 1.92302 87.3235 2.19057L86.3424 15.7478C86.3045 16.2625 86.0736 16.744 85.6958 17.0957C85.318 17.4474 84.8212 17.6433 84.3051 17.6443Z" fill="#EDCB20"/>
<path d="M91.7082 22.9115C91.2902 22.9122 90.882 22.7846 90.5389 22.546C90.1957 22.3074 89.934 21.9692 89.7891 21.5771C89.6443 21.185 89.6232 20.758 89.7288 20.3535C89.8344 19.9491 90.0616 19.5868 90.3797 19.3156L98.4164 12.4619C98.6185 12.273 98.8568 12.1271 99.117 12.0329C99.3771 11.9387 99.6536 11.8982 99.9299 11.9139C100.206 11.9296 100.476 12.0012 100.724 12.1242C100.972 12.2473 101.192 12.4193 101.372 12.6298C101.551 12.8404 101.686 13.0852 101.768 13.3493C101.85 13.6135 101.878 13.8916 101.85 14.1668C101.821 14.442 101.738 14.7086 101.603 14.9505C101.469 15.1924 101.287 15.4046 101.069 15.5742L93.032 22.4092C92.6649 22.7295 92.1953 22.9077 91.7082 22.9115Z" fill="#EDCB20"/>
<path d="M108.951 32.2154H108.801L95.2903 31.2343C95.0228 31.2149 94.7617 31.143 94.5219 31.0227C94.2822 30.9023 94.0685 30.736 93.893 30.533C93.7176 30.3301 93.5838 30.0946 93.4994 29.84C93.4149 29.5854 93.3814 29.3167 93.4009 29.0491C93.4203 28.7816 93.4922 28.5205 93.6125 28.2807C93.7329 28.041 93.8992 27.8273 94.1022 27.6518C94.3051 27.4764 94.5406 27.3426 94.7952 27.2582C95.0498 27.1737 95.3185 27.1402 95.5861 27.1597L109.096 28.1408C109.625 28.1767 110.12 28.4169 110.475 28.8107C110.83 29.2045 111.018 29.721 110.999 30.2509C110.98 30.7808 110.756 31.2826 110.373 31.6501C109.991 32.0176 109.481 32.222 108.951 32.2201V32.2154Z" fill="#EDCB20"/>
<path d="M90.6193 35.9004C90.1072 35.8975 89.6148 35.7033 89.2387 35.3558C88.8626 35.0084 88.63 34.5328 88.5866 34.0226C87.6478 22.9112 78.3999 21.6202 78.0103 21.5733C77.4938 21.4855 77.0306 21.2029 76.7162 20.7838C76.4017 20.3647 76.26 19.8409 76.3202 19.3205C76.3804 18.8 76.6378 18.3224 77.0396 17.9861C77.4414 17.6498 77.9568 17.4803 78.4797 17.5127C82.9487 18.0291 91.6614 22.0709 92.6519 33.6753C92.696 34.2174 92.523 34.755 92.1709 35.1696C91.8188 35.5842 91.3164 35.842 90.7742 35.8863L90.6193 35.9004Z" fill="#EDCB20"/>
<path d="M11.0601 17.7475C11.8707 18.6363 12.2759 19.8583 12.2759 21.4137V28.2628H8.70355V21.8972C8.74646 21.2302 8.52944 20.5724 8.09799 20.0618C7.65419 19.6415 7.06621 19.4072 6.45498 19.4072C5.84375 19.4072 5.25576 19.6415 4.81196 20.0618C4.38167 20.5712 4.16472 21.227 4.20639 21.8926V28.2581H0.615234V12.7104H4.21109V18.1136C4.59025 17.5775 5.10334 17.1502 5.69919 16.8743C6.36075 16.5562 7.08699 16.3955 7.82102 16.4049C8.42604 16.38 9.02921 16.4872 9.58859 16.7191C10.148 16.9509 10.6501 17.3019 11.0601 17.7475Z" fill="#F8A700"/>
<path d="M14.7451 19.2074C15.1594 18.3428 15.8105 17.6136 16.6229 17.1044C17.4085 16.6114 18.3196 16.3555 19.247 16.3674C20.0027 16.3502 20.7504 16.5246 21.4205 16.8743C22.0046 17.1757 22.4973 17.6279 22.8476 18.1841V16.5364H26.4387V28.2722H22.8476V26.6104C22.4844 27.1711 21.9811 27.6274 21.3876 27.9342C20.7173 28.2833 19.9697 28.4577 19.2141 28.4412C18.2918 28.4498 17.3867 28.1905 16.6088 27.6948C15.7973 27.1764 15.1469 26.4415 14.7311 25.5729C14.2604 24.5792 14.0273 23.4895 14.0504 22.3902C14.0286 21.2894 14.2666 20.199 14.7451 19.2074ZM22.1012 20.2777C21.8663 20.0326 21.5843 19.8376 21.2721 19.7044C20.9598 19.5711 20.6239 19.5025 20.2845 19.5025C19.945 19.5025 19.6091 19.5711 19.2968 19.7044C18.9846 19.8376 18.7026 20.0326 18.4677 20.2777C18.2095 20.5628 18.0105 20.8963 17.8824 21.259C17.7543 21.6217 17.6995 22.0062 17.7214 22.3902C17.68 23.1711 17.9482 23.9369 18.4677 24.5214C18.7012 24.7689 18.9828 24.9661 19.2952 25.1009C19.6076 25.2356 19.9442 25.3052 20.2845 25.3052C20.6247 25.3052 20.9613 25.2356 21.2737 25.1009C21.5861 24.9661 21.8677 24.7689 22.1012 24.5214C22.5795 23.9212 22.84 23.1765 22.84 22.409C22.84 21.6415 22.5795 20.8967 22.1012 20.2965V20.2777Z" fill="#F8A700"/>
<path d="M34.0903 16.8744C34.7568 16.5241 35.5016 16.3496 36.2544 16.3674C37.1849 16.3538 38.0996 16.6097 38.8879 17.1045C39.7002 17.6136 40.3513 18.3429 40.7656 19.2075C41.2378 20.1974 41.471 21.2844 41.4463 22.3809C41.4693 23.4802 41.2363 24.5699 40.7656 25.5636C40.3498 26.4322 39.6994 27.1671 38.8879 27.6855C38.1039 28.1832 37.1923 28.4425 36.2637 28.4319C35.5143 28.4468 34.7732 28.2725 34.109 27.9249C33.5208 27.621 33.0187 27.1738 32.6491 26.6246V33.8538H29.0298V16.5364H32.6209V18.1842C32.9888 17.6275 33.4951 17.1761 34.0903 16.8744ZM37.0101 20.2684C36.7747 20.0193 36.4898 19.8221 36.1737 19.6896C35.8577 19.557 35.5174 19.4919 35.1747 19.4986C34.8334 19.4936 34.4949 19.5605 34.1812 19.6947C33.8674 19.8289 33.5853 20.0276 33.3533 20.2778C32.8781 20.8794 32.6196 21.6236 32.6196 22.3903C32.6196 23.1569 32.8781 23.9011 33.3533 24.5027C33.588 24.7506 33.8707 24.948 34.1843 25.083C34.4979 25.2179 34.8356 25.2875 35.177 25.2875C35.5184 25.2875 35.8562 25.2179 36.1697 25.083C36.4833 24.948 36.7661 24.7506 37.0007 24.5027C37.525 23.9205 37.7969 23.154 37.7565 22.3715C37.7771 21.989 37.7217 21.6063 37.5936 21.2453C37.4655 20.8844 37.2672 20.5524 37.0101 20.2684Z" fill="#F8A700"/>
<path d="M48.3562 16.8744C49.0227 16.5241 49.7675 16.3496 50.5202 16.3674C51.4491 16.3558 52.3617 16.6116 53.1491 17.1045C53.9606 17.6146 54.6115 18.3436 55.0268 19.2075C55.5006 20.197 55.7354 21.284 55.7122 22.3809C55.7337 23.4806 55.4991 24.5703 55.0268 25.5636C54.611 26.4322 53.9606 27.1671 53.1491 27.6855C52.3635 28.1833 51.4503 28.4426 50.5202 28.4319C49.7708 28.4468 49.0297 28.2725 48.3656 27.9249C47.7783 27.6197 47.2765 27.1727 46.9056 26.6246V33.8538H43.3145V16.5364H46.9056V18.1842C47.2694 17.6309 47.7688 17.18 48.3562 16.8744ZM51.2901 20.2684C51.0538 20.0192 50.7681 19.822 50.4512 19.6894C50.1344 19.5568 49.7933 19.4918 49.4499 19.4986C49.1094 19.494 48.7718 19.561 48.4588 19.6953C48.1459 19.8295 47.8646 20.028 47.6332 20.2778C47.1549 20.878 46.8944 21.6228 46.8944 22.3903C46.8944 23.1578 47.1549 23.9025 47.6332 24.5027C47.8675 24.7505 48.1499 24.9478 48.4631 25.0827C48.7762 25.2176 49.1136 25.2872 49.4546 25.2872C49.7956 25.2872 50.133 25.2176 50.4462 25.0827C50.7594 24.9478 51.0417 24.7505 51.276 24.5027C51.5373 24.2154 51.7391 23.879 51.8696 23.5132C52.0002 23.1474 52.0569 22.7594 52.0365 22.3715C52.0571 21.989 52.0017 21.6063 51.8736 21.2453C51.7455 20.8844 51.5472 20.5524 51.2901 20.2684Z" fill="#F8A700"/>
<path d="M69.5606 16.5366L62.2045 33.8305H58.3364L61.0263 27.864L56.2568 16.5366H60.2705L62.9838 23.8692L65.6737 16.5366H69.5606Z" fill="#F8A700"/>
<path d="M2.65229 51.8376C1.91356 51.5255 1.2671 51.0294 0.774564 50.3965C0.321389 49.8049 0.0520432 49.0931 0 48.3497H3.54891C3.56718 48.5452 3.62738 48.7345 3.7254 48.9046C3.82342 49.0747 3.95696 49.2217 4.11692 49.3355C4.47651 49.5961 4.91241 49.7298 5.35622 49.7158C5.7224 49.7377 6.08639 49.6459 6.39837 49.4529C6.51212 49.3787 6.60531 49.277 6.66931 49.1572C6.73331 49.0374 6.76606 48.9033 6.76452 48.7675C6.76443 48.6041 6.71387 48.4447 6.61977 48.3111C6.52566 48.1775 6.39259 48.0763 6.23876 48.0211C5.68808 47.7961 5.11968 47.6171 4.53941 47.486C3.82415 47.3313 3.12124 47.1242 2.43635 46.8663C1.87535 46.6487 1.37699 46.2955 0.985807 45.8383C0.562485 45.3065 0.345738 44.6396 0.375546 43.9605C0.371466 43.3048 0.566237 42.6632 0.934171 42.1204C1.34414 41.5353 1.91248 41.0794 2.57249 40.806C3.38952 40.4718 4.2673 40.3119 5.14967 40.3365C6.40202 40.2671 7.63681 40.6559 8.62347 41.4303C9.04616 41.7937 9.39278 42.2371 9.64334 42.735C9.8939 43.2329 10.0435 43.7754 10.0834 44.3314H6.75044C6.72976 44.1428 6.67181 43.9602 6.57994 43.7942C6.48807 43.6282 6.36411 43.4821 6.21529 43.3644C5.87242 43.112 5.45282 42.9859 5.02762 43.0076C4.68838 42.9866 4.35086 43.0702 4.06059 43.247C3.95415 43.3207 3.86787 43.4199 3.80965 43.5355C3.75142 43.6511 3.72311 43.7795 3.72729 43.9089C3.7279 44.0752 3.77954 44.2373 3.87525 44.3733C3.97096 44.5093 4.10611 44.6127 4.26245 44.6694C4.80162 44.8914 5.36139 45.0597 5.93363 45.1717C6.65326 45.3506 7.36175 45.5716 8.05546 45.8336C8.61369 46.0602 9.10717 46.4215 9.49192 46.8851C9.92935 47.4365 10.1572 48.1251 10.135 48.8286C10.1436 49.4878 9.94128 50.1325 9.55764 50.6687C9.13244 51.2376 8.55693 51.6766 7.89586 51.9362C7.09936 52.2619 6.24476 52.4217 5.38439 52.4056C4.44394 52.4099 3.51311 52.2164 2.65229 51.8376Z" fill="#F8A700"/>
<path d="M23.9175 40.4683V52.2041H20.3263V50.608C19.9428 51.1405 19.4331 51.5696 18.8429 51.8567C18.1999 52.1753 17.4903 52.3362 16.7727 52.3261C15.9508 52.338 15.1406 52.1306 14.4256 51.7253C13.7315 51.3201 13.1741 50.7169 12.8248 49.993C12.4311 49.1604 12.2366 48.2475 12.2568 47.3267V40.473H15.8292V46.8197C15.79 47.4842 16.0086 48.1383 16.4394 48.6458C16.8859 49.0609 17.4729 49.2916 18.0825 49.2916C18.692 49.2916 19.279 49.0609 19.7255 48.6458C20.1585 48.1395 20.3773 47.4846 20.3357 46.8197V40.4683H23.9175Z" fill="#F8A700"/>
<path d="M36.9348 41.6794C37.7579 42.565 38.1679 43.7871 38.1647 45.3457V52.1947H34.5923V45.8292C34.6337 45.1629 34.4149 44.5066 33.9821 43.9984C33.5388 43.577 32.9506 43.3421 32.3391 43.3421C31.7275 43.3421 31.1393 43.577 30.6961 43.9984C30.2649 44.5076 30.0464 45.1632 30.0858 45.8292V52.1947H26.4946V40.4589H30.0858V42.0127C30.4641 41.4848 30.9717 41.0629 31.5598 40.7875C32.2069 40.471 32.9191 40.3102 33.6394 40.318C34.2547 40.291 34.8685 40.3989 35.4377 40.634C36.007 40.8692 36.5179 41.226 36.9348 41.6794Z" fill="#F8A700"/>
<path d="M42.7041 51.8379C41.9653 51.5258 41.3189 51.0296 40.8263 50.3967C40.3732 49.8051 40.1038 49.0934 40.0518 48.35H43.5819C43.6002 48.5455 43.6604 48.7347 43.7584 48.9048C43.8564 49.075 43.9899 49.2219 44.1499 49.3358C44.5095 49.5963 44.9454 49.7301 45.3892 49.716C45.7554 49.7379 46.1194 49.6461 46.4314 49.4532C46.5451 49.3789 46.6383 49.2772 46.7023 49.1574C46.7663 49.0376 46.799 48.9036 46.7975 48.7678C46.7974 48.6044 46.7469 48.445 46.6528 48.3114C46.5586 48.1778 46.4256 48.0765 46.2717 48.0214C45.7211 47.7963 45.1527 47.6173 44.5724 47.4862C43.8571 47.3315 43.1542 47.1244 42.4693 46.8666C41.9083 46.649 41.41 46.2958 41.0188 45.8385C40.5955 45.3067 40.3787 44.6398 40.4085 43.9608C40.4045 43.305 40.5992 42.6634 40.9671 42.1206C41.3771 41.5356 41.9455 41.0796 42.6055 40.8062C43.4209 40.4721 44.2971 40.3122 45.178 40.3368C46.4319 40.2662 47.6686 40.6551 48.6565 41.4306C49.0791 41.7939 49.4258 42.2373 49.6763 42.7352C49.9269 43.2331 50.0764 43.7757 50.1164 44.3316H46.7975C46.7768 44.143 46.7189 43.9604 46.627 43.7944C46.5351 43.6284 46.4112 43.4823 46.2624 43.3646C45.9183 43.1146 45.4996 42.9888 45.0747 43.0078C44.7354 42.9863 44.3977 43.0699 44.1077 43.2473C44.0012 43.3209 43.9149 43.4201 43.8567 43.5358C43.7985 43.6514 43.7702 43.7798 43.7744 43.9092C43.775 44.0755 43.8266 44.2376 43.9223 44.3736C44.018 44.5096 44.1532 44.6129 44.3095 44.6696C44.8473 44.891 45.4055 45.0592 45.976 45.1719C46.6971 45.3509 47.4072 45.5719 48.1025 45.8338C48.6608 46.0605 49.1542 46.4217 49.539 46.8854C49.9764 47.4367 50.2043 48.1253 50.1821 48.8288C50.1907 49.4881 49.9884 50.1328 49.6047 50.669C49.1795 51.2379 48.604 51.6768 47.9429 51.9364C47.1464 52.2622 46.2918 52.4219 45.4315 52.4059C44.4926 52.4095 43.5634 52.216 42.7041 51.8379Z" fill="#F8A700"/>
<path d="M62.8287 41.6793C63.6455 42.5665 64.0492 43.787 64.0492 45.3456V52.1946H60.4815V45.8291C60.5229 45.1628 60.3041 44.5065 59.8712 43.9983C59.428 43.5769 58.8398 43.342 58.2282 43.342C57.6167 43.342 57.0285 43.5769 56.5852 43.9983C56.1541 44.5075 55.9355 45.1631 55.9749 45.8291V52.1946H52.3838V36.647H55.9749V42.0454C56.3601 41.5131 56.8736 41.0868 57.4677 40.8061C58.1291 40.4875 58.8555 40.3268 59.5896 40.3367C60.1947 40.3112 60.798 40.4181 61.3575 40.65C61.917 40.8819 62.4191 41.2332 62.8287 41.6793Z" fill="#F8A700"/>
<path d="M66.8189 38.6937C66.626 38.5209 66.4726 38.3087 66.3689 38.0713C66.2652 37.834 66.2138 37.5772 66.218 37.3183C66.2106 37.0541 66.2604 36.7914 66.3642 36.5483C66.4679 36.3052 66.623 36.0875 66.8189 35.91C67.2408 35.529 67.7953 35.3284 68.3633 35.3514C68.9238 35.3321 69.4695 35.5326 69.8843 35.91C70.0802 36.0875 70.2353 36.3052 70.339 36.5483C70.4427 36.7914 70.4926 37.0541 70.4851 37.3183C70.4894 37.5772 70.4379 37.834 70.3342 38.0713C70.2306 38.3087 70.0771 38.5209 69.8843 38.6937C69.4695 39.0712 68.9238 39.2716 68.3633 39.2524C67.7953 39.2753 67.2408 39.0748 66.8189 38.6937ZM70.1472 40.4682V52.204H66.556V40.4682H70.1472Z" fill="#F8A700"/>
<path d="M83.188 41.679C84.0535 42.6979 84.4939 44.0106 84.418 45.3453V52.1943H80.8456V45.8288C80.885 45.1628 80.6664 44.5072 80.2353 43.998C79.7921 43.5767 79.2039 43.3417 78.5923 43.3417C77.9807 43.3417 77.3925 43.5767 76.9493 43.998C76.5164 44.5062 76.2977 45.1626 76.339 45.8288V52.1943H72.7432V40.4585H76.339V42.0123C76.7148 41.4839 77.221 41.0618 77.8083 40.7871C78.4555 40.4706 79.1676 40.3099 79.8879 40.3177C80.5038 40.2919 81.1179 40.4003 81.6877 40.6354C82.2576 40.8704 82.7695 41.2265 83.188 41.679Z" fill="#F8A700"/>
<path d="M97.9091 47.1949H89.7739C89.786 47.8201 90.0381 48.4168 90.478 48.8613C90.8894 49.2498 91.4381 49.4591 92.0037 49.4434C92.3962 49.4749 92.7888 49.3822 93.1258 49.1783C93.4627 48.9744 93.7271 48.6698 93.8814 48.3074H97.7073C97.5087 49.0731 97.1396 49.784 96.6276 50.387C96.1043 51.0102 95.4461 51.5062 94.7029 51.8375C93.8904 52.1974 93.0095 52.3768 92.121 52.3633C91.0515 52.3837 89.9946 52.13 89.0509 51.6263C88.1606 51.1443 87.4299 50.4135 86.9479 49.5232C86.4539 48.5316 86.1968 47.4389 86.1968 46.3311C86.1968 45.2233 86.4539 44.1306 86.9479 43.139C87.4237 42.2488 88.15 41.5177 89.0368 41.0359C89.9894 40.5332 91.0536 40.2797 92.1304 40.2989C93.1826 40.2797 94.2225 40.5268 95.1535 41.0171C96.0259 41.482 96.745 42.1896 97.2237 43.0545C97.7376 44.0014 97.9949 45.0662 97.9701 46.1433C97.9676 46.4946 97.9472 46.8456 97.9091 47.1949ZM94.2945 45.1951C94.3059 44.9183 94.2549 44.6425 94.1452 44.3881C94.0355 44.1338 93.8699 43.9074 93.6608 43.7257C93.2229 43.3543 92.6619 43.1601 92.0882 43.1812C91.5323 43.1634 90.9894 43.3505 90.5625 43.707C90.1311 44.0905 89.8583 44.6211 89.7973 45.1951H94.2945Z" fill="#F8A700"/>
</svg>
