<svg width="49" height="42" viewBox="0 0 49 42" fill="none" xmlns="http://www.w3.org/2000/svg">
<path d="M32.9652 34.6111C31.0781 34.6111 29.6124 36.1408 29.6124 38.0278C29.6124 39.9148 31.1421 41.4444 32.9652 41.4444C34.7882 41.4444 36.3179 39.9148 36.3179 38.0278C36.3179 36.1408 34.9156 34.6111 32.9652 34.6111ZM12.4643 34.6111C10.5772 34.6111 9.11151 36.1408 9.11151 38.0278C9.11151 39.9148 10.642 41.4444 12.4643 41.4444C14.2866 41.4444 15.817 39.9148 15.817 38.0278C15.817 36.1408 14.4147 34.6111 12.4643 34.6111ZM40.5391 9.32279C40.1042 8.74666 39.4414 8.41667 38.7196 8.41667H8.62034L8.51357 6.38873C8.35696 5.58297 7.65225 5 6.83363 5H1.64434C0.765225 5 0 5.76519 0 6.64427C0 7.52335 0.765225 8.41667 1.64434 8.41667H5.35586L9.64681 30.9453C9.86606 31.7497 10.5708 32.3333 11.3894 32.3333H34.7376C35.6808 32.3333 36.446 31.5681 36.446 30.6891C36.446 29.6783 35.6844 28.9167 34.7376 28.9167H12.8059L12.1511 25.5H34.8159C35.8332 25.5 36.7265 24.8259 37.0063 23.8479L40.9114 11.3842C41.1086 10.6268 40.9733 9.89936 40.5391 9.32279Z" fill="#F8A700"/>
<circle cx="39.5" cy="9.5" r="9.5" fill="#EDCB20"/>
<path d="M36.7462 7.006V4.78H40.6242V15H38.1322V7.006H36.7462Z" fill="black"/>
</svg>
