<svg width="49" height="50" viewBox="0 0 49 50" fill="none" xmlns="http://www.w3.org/2000/svg">
<path d="M11.1361 24.5662H10.9269C10.1768 24.5077 9.4805 24.1543 8.99047 23.5834C8.50043 23.0126 8.25666 22.2707 8.31255 21.5204L9.66549 2.63817C9.69253 2.26566 9.79267 1.90213 9.9602 1.56832C10.1277 1.23452 10.3594 0.936982 10.6419 0.692698C10.9244 0.448414 11.2523 0.262169 11.6068 0.144596C11.9613 0.0270227 12.3355 -0.0195748 12.708 0.00746196C13.0805 0.0344987 13.444 0.134639 13.7778 0.30217C14.1116 0.4697 14.4091 0.701338 14.6534 0.983858C14.8977 1.26638 15.084 1.59425 15.2015 1.94874C15.3191 2.30324 15.3657 2.67742 15.3387 3.04993L13.9727 21.9257C13.9199 22.6424 13.5983 23.3127 13.0723 23.8023C12.5463 24.292 11.8547 24.5648 11.1361 24.5662Z" fill="#EDCB20"/>
<path d="M21.4433 31.8995C20.8613 31.9005 20.293 31.7229 19.8152 31.3906C19.3374 31.0584 18.9731 30.5876 18.7714 30.0417C18.5697 29.4958 18.5404 28.9011 18.6874 28.338C18.8345 27.775 19.1508 27.2706 19.5936 26.893L30.7831 17.3505C31.0645 17.0875 31.3964 16.8843 31.7586 16.7532C32.1208 16.6221 32.5058 16.5657 32.8903 16.5876C33.2749 16.6095 33.6511 16.709 33.9961 16.8804C34.3411 17.0517 34.6477 17.2912 34.8976 17.5843C35.1474 17.8775 35.3352 18.2183 35.4497 18.5861C35.5641 18.9539 35.6028 19.3411 35.5634 19.7243C35.524 20.1074 35.4073 20.4786 35.2203 20.8154C35.0334 21.1523 34.7802 21.4477 34.4759 21.6838L23.2864 31.2001C22.7754 31.6461 22.1215 31.8942 21.4433 31.8995Z" fill="#EDCB20"/>
<path d="M45.4511 44.8538H45.242L26.4316 43.4878C26.0591 43.4607 25.6956 43.3606 25.3618 43.1931C25.028 43.0255 24.7304 42.7939 24.4862 42.5114C24.2419 42.2288 24.0556 41.901 23.938 41.5465C23.8205 41.192 23.7739 40.8178 23.8009 40.4453C23.828 40.0728 23.9281 39.7093 24.0956 39.3755C24.2632 39.0416 24.4948 38.7441 24.7773 38.4998C25.0598 38.2555 25.3877 38.0693 25.7422 37.9517C26.0967 37.8342 26.4709 37.7876 26.8434 37.8146L45.6538 39.1806C46.3903 39.2306 47.0786 39.5651 47.5729 40.1134C48.0673 40.6617 48.329 41.3808 48.3027 42.1186C48.2763 42.8564 47.9641 43.555 47.4319 44.0667C46.8997 44.5783 46.1894 44.863 45.4511 44.8603V44.8538Z" fill="#EDCB20"/>
<path d="M19.9275 49.9843C19.2146 49.9804 18.5289 49.7099 18.0053 49.2262C17.4816 48.7424 17.1578 48.0803 17.0974 47.3699C15.7903 31.8994 2.91451 30.1021 2.37203 30.0367C1.65286 29.9144 1.00797 29.521 0.570191 28.9375C0.132412 28.3539 -0.0649137 27.6248 0.0188624 26.9001C0.102639 26.1754 0.461131 25.5105 1.0205 25.0422C1.57987 24.574 2.29752 24.3381 3.02562 24.3831C9.24781 25.1021 21.3785 30.7295 22.7575 46.8863C22.819 47.6412 22.5781 48.3896 22.0878 48.9668C21.5975 49.5441 20.8981 49.9031 20.1432 49.9647L19.9275 49.9843Z" fill="#EDCB20"/>
</svg>
