<svg width="63" height="59" viewBox="0 0 63 59" fill="none" xmlns="http://www.w3.org/2000/svg">
<path fill-rule="evenodd" clip-rule="evenodd" d="M50.8118 32.6773C52.281 31.6853 53.8252 30.809 55.4305 30.0564C53.5542 27.3364 51.501 24.7427 49.2841 22.2921C45.8305 22.5309 42.4299 23.2693 39.1884 24.484C32.601 27.0144 29.9196 23.5907 36.1526 19.3249C38.2254 17.9235 40.4513 16.7629 42.7873 15.8658C40.0032 13.3701 37.0525 11.0665 33.9555 8.97114C30.7287 9.2586 27.5561 9.98412 24.5253 11.1277C17.9458 13.6541 15.2565 10.2304 21.4974 5.96852C22.6432 5.1854 23.852 4.50853 25.0844 3.87495C15.0478 -0.855264 6.15311 -1.45736 1.91247 3.19414C-4.85603 10.6082 7.2871 23.6419 23.4858 38.3913C39.6727 53.1408 53.7688 64.0258 60.5452 56.6078C64.3764 52.4049 63.5653 44.798 59.2104 36.3096C57.3716 36.7031 55.5683 37.1714 53.8476 37.8365C47.2563 40.3668 44.5709 36.9471 50.8118 32.6773Z" fill="#F8A700"/>
</svg>
