<svg width="278" height="296" viewBox="0 0 278 296" fill="none" xmlns="http://www.w3.org/2000/svg">
<path d="M30.6494 150.865C30.6494 150.865 99.5038 122.543 244.55 148.069L206.989 209.539L53.9281 190.125L30.6494 150.865Z" fill="#D1D3D4"/>
<path d="M74.3707 92.0961L48.2694 145.774C46.8276 145.49 45.4468 145.158 44.0929 144.793C4.15577 133.766 -3.52707 82.8971 1.26539 73.8266C2.17244 72.0802 3.55332 71.8771 5.25911 73.786C16.1031 85.9837 74.3707 92.0961 74.3707 92.0961Z" fill="#F6DD38"/>
<path d="M231.142 165.892C231.134 179.83 228.047 193.593 222.102 206.199C216.157 218.806 207.501 229.943 196.752 238.815C186.003 247.687 173.426 254.075 159.922 257.522C146.417 260.97 132.318 261.391 118.631 258.757C104.945 256.122 92.0098 250.497 80.75 242.282C69.4902 234.068 60.184 223.468 53.4967 211.239C46.8094 199.011 42.9061 185.456 42.0657 171.544C41.2254 157.631 43.4687 143.705 48.6355 130.761C49.9104 127.571 51.3612 124.455 52.9812 121.426C58.7966 110.517 66.6991 100.858 76.2395 92.9964C78.1958 91.3718 80.1926 89.8285 82.2707 88.3935C99.9149 76.0443 121.246 70.0873 142.735 71.5078C164.225 72.9282 184.586 81.6409 200.451 96.2049C204.972 100.335 209.072 104.904 212.689 109.844C215.433 113.528 217.894 117.413 220.054 121.467C222.81 126.618 225.076 132.016 226.823 137.591C229.685 146.752 231.141 156.294 231.142 165.892Z" fill="#F6DD38"/>
<path d="M91.808 159.766C91.4887 160.126 91.1375 160.457 90.7588 160.754C91.2394 160.28 91.5846 159.949 91.808 159.766Z" fill="#DFC010"/>
<path d="M231.142 165.892C231.134 179.829 228.047 193.593 222.102 206.199C216.157 218.806 207.501 229.943 196.752 238.815C186.003 247.687 173.426 254.075 159.922 257.522C146.417 260.97 132.318 261.391 118.631 258.757C104.945 256.122 92.0098 250.497 80.75 242.282C69.4902 234.068 60.184 223.468 53.4967 211.239C46.8094 199.011 42.9061 185.456 42.0657 171.544C41.2254 157.631 43.4687 143.705 48.6355 130.761C48.7438 131.438 51.1265 145.348 66.7155 142.322L55.2082 151.616C55.2082 151.616 64.9556 154.29 74.2697 148.963C74.2697 148.963 61.4086 164.227 59.8111 165.79C61.6862 165.418 79.8677 170.251 90.7049 160.815C86.9819 164.64 77.2955 176.98 92.0046 190.206C92.0046 190.206 85.3574 179.119 92.0046 172.025C92.0046 172.025 92.8845 196.393 104.426 197.3C104.426 197.3 100.439 188.439 102.205 184.879C102.205 184.879 129.282 203.514 172.258 184.446C172.258 184.446 175.818 188.439 174.911 195.08C179.822 190.234 182.818 183.777 183.346 176.898C183.346 176.898 188.219 180.005 187.339 191.54C187.339 191.54 209.386 184.838 199.246 164.024C199.246 164.024 208.174 160.937 214.388 168.031C214.388 168.031 225.896 155.61 214.388 148.083C214.388 148.083 225.022 149.375 225.984 158.121L226.83 137.55C229.694 146.725 231.147 156.281 231.142 165.892Z" fill="#EDCB20"/>
<path d="M67.8457 100.774C67.8457 100.774 97.1623 14.6519 136.213 11.2741C175.263 7.89639 200.864 24.5685 203.449 98.9735L67.8457 100.774Z" fill="#F6DD38"/>
<path d="M136.395 68.0729C136.395 68.0729 144.247 65.7715 145.425 64.5192C146.603 63.2669 154.285 50.5683 164.588 66.4077C166.686 70.6316 166.47 77.5631 164.696 79.7089C164.696 79.7089 167.871 87.4865 164.879 89.111C161.887 90.7356 143.13 95.5348 135.44 86.3696C135.44 86.3696 129.023 78.4904 136.395 68.0729Z" fill="#EFC1A9"/>
<path d="M138.21 69.4537C138.21 69.4537 146.529 67.6735 148.072 65.3923C148.072 65.3923 154.354 74.077 159.471 70.2322C164.589 66.3874 162.991 65.3923 162.991 65.3923C162.991 65.3923 168.21 77.7119 163.228 79.1267C158.246 80.5414 139.395 77.3667 138.21 69.4537Z" fill="#D3A59C"/>
<path d="M137.099 77.3802C137.099 77.3802 158.577 80.609 162.51 80.8933C166.442 81.1776 167.844 87.6623 161.528 88.61C155.213 89.5576 136.679 90.0112 137.099 77.3802Z" fill="#D3A59C"/>
<path d="M132.855 70.3134C133.743 71.3877 134.754 72.3533 135.868 73.1902C140.173 76.5747 149.311 81.5499 164.697 79.9592C164.697 79.9592 158.747 84.8058 150.949 82.6668C143.151 80.5278 141.567 79.6817 132.855 70.3134Z" fill="#996045"/>
<path d="M156.553 70.0088C158.056 70.0088 159.274 68.7905 159.274 67.2877C159.274 65.7848 158.056 64.5665 156.553 64.5665C155.05 64.5665 153.832 65.7848 153.832 67.2877C153.832 68.7905 155.05 70.0088 156.553 70.0088Z" fill="#FFF3EE"/>
<path d="M136.524 47.7251C136.513 50.1197 135.796 52.4579 134.464 54.4475C133.131 56.4372 131.242 57.9902 129.032 58.9124C126.822 59.8346 124.39 60.0852 122.038 59.6329C119.687 59.1806 117.521 58.0454 115.811 56.3692C115.811 56.3692 115.811 56.3692 115.77 56.3218C112.501 53.9797 108.615 43.6976 108.615 43.6976L112.792 44.0428C112.935 43.5492 113.12 43.0691 113.347 42.6078L109.725 39.5617L114.829 40.2386C115.142 39.8232 115.486 39.4317 115.858 39.0676L113.184 36.6849C116.439 35.9302 119.774 35.5845 123.114 35.656C123.118 35.6603 123.123 35.6638 123.128 35.6661C123.133 35.6685 123.139 35.6697 123.145 35.6697C123.151 35.6697 123.156 35.6685 123.162 35.6661C123.167 35.6638 123.172 35.6603 123.175 35.656C127.704 35.8794 130.703 37.1993 132.652 38.9051C132.794 39.0269 132.943 39.1488 133.045 39.2503C134.451 40.7025 135.482 42.4751 136.05 44.4151C136.195 44.9349 136.304 45.4641 136.375 45.999C136.375 46.1615 136.416 46.3104 136.436 46.4526C136.455 46.56 136.455 46.67 136.436 46.7775C136.487 47.0909 136.516 47.4076 136.524 47.7251Z" fill="#FAEA92"/>
<path d="M132.679 38.8849C130.702 37.1791 127.704 35.8592 123.202 35.6358C123.6 35.593 124 35.5704 124.4 35.5681C127.483 35.5714 130.447 36.7588 132.679 38.8849Z" fill="#FAEA92"/>
<path d="M136.077 44.3949C135.509 42.455 134.477 40.6824 133.071 39.2302C134.534 40.6383 135.575 42.4271 136.077 44.3949Z" fill="#FAEA92"/>
<path d="M165.868 53.2625C165.868 59.9841 170.437 65.4128 176.055 65.4128C177.436 65.3914 178.795 65.0655 180.036 64.4582C181.276 63.8509 182.367 62.9773 183.231 61.8997C183.231 61.8997 183.231 61.8997 183.264 61.8591C186.006 59.5103 189.262 49.2281 189.262 49.2281L185.762 49.5801C185.64 49.0892 185.484 48.6074 185.295 48.1383L188.334 45.0923L184.056 45.7692C183.795 45.3586 183.508 44.9652 183.197 44.5914L185.437 42.2087C182.725 41.4592 179.918 41.1125 177.105 41.1798H177.057C173.26 41.4031 170.742 42.7231 169.09 44.4289C168.974 44.5391 168.866 44.6566 168.765 44.7809C167.553 46.2919 166.693 48.0539 166.247 49.9389C166.123 50.4608 166.03 50.9897 165.97 51.5228C165.97 51.692 165.97 51.8342 165.915 51.9763C165.899 52.0863 165.899 52.1981 165.915 52.308C165.879 52.6248 165.863 52.9436 165.868 53.2625Z" fill="#FAEA92"/>
<path d="M169.083 44.4152C170.735 42.7094 173.253 41.3895 177.05 41.1661C176.718 41.1258 176.383 41.1054 176.048 41.1052C174.718 41.1253 173.407 41.4313 172.206 42.0024C171.004 42.5735 169.939 43.3964 169.083 44.4152Z" fill="#FAEA92"/>
<path d="M166.247 49.9251C166.693 48.0402 167.553 46.2782 168.765 44.7672C167.504 46.2462 166.637 48.0207 166.247 49.9251Z" fill="#FAEA92"/>
<path d="M125.078 58.0346C130.981 58.0346 135.766 53.2493 135.766 47.3463C135.766 41.4433 130.981 36.658 125.078 36.658C119.175 36.658 114.39 41.4433 114.39 47.3463C114.39 53.2493 119.175 58.0346 125.078 58.0346Z" fill="#DDC9AC"/>
<path d="M174.18 62.8268C178.606 62.8268 182.194 58.5537 182.194 53.2825C182.194 48.0113 178.606 43.7382 174.18 43.7382C169.753 43.7382 166.165 48.0113 166.165 53.2825C166.165 58.5537 169.753 62.8268 174.18 62.8268Z" fill="#DDC9AC"/>
<path d="M125.078 55.6856C129.683 55.6856 133.417 51.9519 133.417 47.3461C133.417 42.7404 129.683 39.0067 125.078 39.0067C120.472 39.0067 116.738 42.7404 116.738 47.3461C116.738 51.9519 120.472 55.6856 125.078 55.6856Z" fill="#32150F"/>
<path d="M174.18 61.2903C177.896 61.2903 180.908 57.7051 180.908 53.2826C180.908 48.86 177.896 45.2748 174.18 45.2748C170.464 45.2748 167.451 48.86 167.451 53.2826C167.451 57.7051 170.464 61.2903 174.18 61.2903Z" fill="#32150F"/>
<path d="M121.734 47.3531C123.566 47.3531 125.051 45.8681 125.051 44.0362C125.051 42.2044 123.566 40.7194 121.734 40.7194C119.902 40.7194 118.417 42.2044 118.417 44.0362C118.417 45.8681 119.902 47.3531 121.734 47.3531Z" fill="white"/>
<path d="M170.409 53.6482C172.043 53.6482 173.367 52.3238 173.367 50.6901C173.367 49.0564 172.043 47.7321 170.409 47.7321C168.776 47.7321 167.451 49.0564 167.451 50.6901C167.451 52.3238 168.776 53.6482 170.409 53.6482Z" fill="white"/>
<path d="M115.696 74.3817C121.334 74.3817 125.904 71.4481 125.904 67.8293C125.904 64.2105 121.334 61.2769 115.696 61.2769C110.058 61.2769 105.488 64.2105 105.488 67.8293C105.488 71.4481 110.058 74.3817 115.696 74.3817Z" fill="#FFCCC0"/>
<path d="M179.223 80.3925C183.777 80.3925 187.468 77.4589 187.468 73.8401C187.468 70.2213 183.777 67.2877 179.223 67.2877C174.67 67.2877 170.979 70.2213 170.979 73.8401C170.979 77.4589 174.67 80.3925 179.223 80.3925Z" fill="#FFCCC0"/>
<path d="M199.774 106.582L201.635 117.365C201.635 117.365 177.856 114.217 171.175 108.437C171.175 108.437 138.007 119.443 121.192 107.367L95.8356 106.582C95.8356 106.582 95.1925 100.882 102.002 99.7046L80.6933 101.871C80.6933 101.871 72.9631 106.189 67.8457 100.774C68.5226 99.9822 69.4364 97.5656 70.4112 94.682C72.1711 89.4767 74.1612 82.7753 75.4744 81.5095C88.8364 89.0637 139.354 111.882 197.831 95.21L203.179 93.4433C207.633 99.0819 207.335 106.744 210.895 113.486C207.396 112.397 202.001 110.122 199.774 106.582Z" fill="#EDCB20"/>
<path d="M229.273 147.155L218.721 125.413L203.192 93.4703C203.192 93.4703 261.406 87.3782 272.297 75.1939C283.189 63.0097 280.894 137.056 229.273 147.155Z" fill="#F6DD38"/>
<path d="M48.6349 130.761L44.0929 144.773C4.15577 133.746 -3.52707 82.8768 1.26539 73.8063C1.26539 73.8266 18.0322 119.098 48.6349 130.761Z" fill="#EDCB20"/>
<path d="M229.273 147.155L218.72 125.413C224.027 125.129 261.236 121.386 272.296 75.1668C283.161 62.9893 280.893 137.056 229.273 147.155Z" fill="#EDCB20"/>
<path d="M30.6494 151.041L48.6347 170.982L74.2622 149.017L99.1518 170.982L121.733 149.017L143.096 170.982L168.764 149.017L189.261 166.941L214.381 148.083L231.141 166.948L244.53 148.083C244.53 148.083 260.464 284.661 151.483 294.828C42.5019 304.995 23.5487 192.887 30.6494 151.041Z" fill="url(#paint0_linear_40_485)"/>
<path d="M218.179 27.7229C130.466 -34.6536 68.0215 27.7229 68.0215 27.7229L90.7586 22.179V35.5682L118.417 24.3248L139.401 32.3596L159.308 25.3943L177.091 35.5478L193.397 25.3943L218.179 27.7229Z" fill="url(#paint1_linear_40_485)"/>
<defs>
<linearGradient id="paint0_linear_40_485" x1="137.343" y1="148.083" x2="137.343" y2="295.478" gradientUnits="userSpaceOnUse">
<stop stop-color="#F2F2F2"/>
<stop offset="1" stop-color="#E6E7E8"/>
</linearGradient>
<linearGradient id="paint1_linear_40_485" x1="47022.1" y1="4353.54" x2="80331.5" y2="4353.54" gradientUnits="userSpaceOnUse">
<stop stop-color="#F2F2F2"/>
<stop offset="1" stop-color="#E6E7E8"/>
</linearGradient>
</defs>
</svg>
