<svg width="67" height="66" viewBox="0 0 67 66" fill="none" xmlns="http://www.w3.org/2000/svg">
<path d="M13.6507 62.8444C13.463 62.8446 13.2768 62.811 13.101 62.7452C4.192 59.3643 2.86113 52.2636 2.80947 51.9639C2.74354 51.5616 2.83879 51.1494 3.07461 50.8168C3.31042 50.4842 3.66779 50.2579 4.06929 50.187C4.47078 50.116 4.88406 50.2061 5.21959 50.4378C5.55511 50.6694 5.78584 51.024 5.86179 51.4245C5.90932 51.6725 7.02113 57.1221 14.2004 59.8458C14.5391 59.9746 14.8219 60.218 14.9998 60.5338C15.1776 60.8495 15.2392 61.2175 15.1739 61.5739C15.1085 61.9304 14.9204 62.2526 14.6421 62.4847C14.3638 62.7168 14.013 62.8441 13.6507 62.8444Z" fill="#EE702A"/>
<path d="M2.63143 50.104C2.63143 50.104 -3.28928 42.251 2.63143 36.0203C8.55214 29.7896 36.6264 2.01707 36.6264 2.01707C36.6264 2.01707 43.3056 -2.99229 51.0469 2.77756L2.63143 50.104Z" fill="#EE702A"/>
<path d="M64.1329 15.801C64.1329 15.801 70.0515 23.654 64.1329 29.8826C58.2142 36.1112 30.1296 63.8859 30.1296 63.8859C30.1296 63.8859 23.4505 68.8952 15.707 63.1274L64.1329 15.801Z" fill="#EE702A"/>
<path d="M9.90338 49.7566C9.59885 49.7575 9.30098 49.6676 9.04782 49.4983C8.70613 49.2717 8.46831 48.9188 8.38655 48.517C8.3048 48.1152 8.3858 47.6974 8.61178 47.3553C9.14574 46.5837 9.77015 45.8788 10.4717 45.2556C12.0774 43.8194 13.8423 43.0609 15.5782 43.0609C20.2982 43.0609 22.5115 41.108 22.7512 36.7269C22.9413 33.253 24.5677 30.6781 27.4547 29.277C29.6804 28.1982 32.0983 28.0907 33.2618 28.037H33.3589C33.8487 28.0143 35.2415 27.3778 36.3947 25.9477C37.1903 24.9578 38.0645 23.3376 37.7049 21.238C37.5269 20.2983 37.5783 19.3296 37.8546 18.414C38.1309 17.4984 38.624 16.663 39.292 15.9786C41.619 13.5111 45.7294 12.699 47.7649 12.9242C49.3417 13.0999 50.778 11.1263 50.7924 11.1056C51.0268 10.7677 51.3857 10.5368 51.7903 10.4635C51.9906 10.4272 52.1962 10.4308 52.3951 10.474C52.5941 10.5171 52.7826 10.599 52.9499 10.7151C53.1172 10.8311 53.2601 10.9789 53.3702 11.1501C53.4804 11.3213 53.5558 11.5126 53.5921 11.7129C53.6283 11.9133 53.6248 12.1188 53.5816 12.3178C53.5385 12.5167 53.4565 12.7052 53.3405 12.8726C52.892 13.4883 52.3662 14.0439 51.7761 14.5258C50.4019 15.6521 48.8974 16.1605 47.4219 15.9972C46.1819 15.8608 43.0821 16.4601 41.5404 18.0948C41.2013 18.4308 40.9521 18.8467 40.8156 19.3042C40.6791 19.7617 40.6597 20.2462 40.7593 20.7131C41.1932 23.2405 40.5009 25.7886 38.8084 27.8882C37.3102 29.7481 35.1754 31.0542 33.4994 31.1307H33.4002C29.8127 31.2919 26.1094 32.1019 25.8469 36.8922C25.6403 40.4819 24.3073 43.0816 21.8585 44.6233C20.2176 45.6566 18.1634 46.1567 15.5782 46.1567C13.5798 46.1567 11.7364 48.2542 11.195 49.0643C11.0532 49.277 10.8612 49.4515 10.6359 49.5723C10.4106 49.693 10.159 49.7564 9.90338 49.7566Z" fill="#EE702A"/>
<path d="M15.0492 55.4748C14.7695 55.4749 14.495 55.3992 14.2549 55.2557C14.0149 55.1123 13.8181 54.9065 13.6857 54.6602C13.5532 54.4139 13.4899 54.1363 13.5026 53.8569C13.5152 53.5775 13.6033 53.3068 13.7575 53.0735C14.2905 52.3005 14.915 51.5948 15.6175 50.9718C17.2232 49.5376 18.988 48.7792 20.7239 48.7792C25.444 48.7792 27.6573 46.8242 27.897 42.4431C28.0871 38.9712 29.7135 36.3942 32.6005 35.0034C34.8262 33.9247 37.2441 33.8152 38.4075 33.7635H38.5047C38.9944 33.7408 40.3873 33.1063 41.5405 31.6742C42.3361 30.6864 43.2102 29.0662 42.8507 26.9666C42.672 26.0259 42.723 25.0561 42.9993 24.1394C43.2756 23.2227 43.7691 22.3862 44.4378 21.701C46.7647 19.2335 50.8731 18.4213 52.9107 18.6486C54.4854 18.8243 55.9196 16.8569 55.9341 16.8363C56.1702 16.505 56.5271 16.2799 56.9277 16.2095C57.3284 16.139 57.7406 16.2289 58.0756 16.4597C58.4105 16.6905 58.6413 17.0437 58.7182 17.4432C58.795 17.8427 58.7117 18.2563 58.4863 18.5949C58.0389 19.2116 57.513 19.7674 56.9219 20.2482C55.5476 21.3765 54.0432 21.8849 52.5677 21.7216C51.3277 21.5832 48.2279 22.1845 46.6862 23.8192C46.346 24.1542 46.0954 24.5694 45.9574 25.0265C45.8195 25.4837 45.7986 25.9681 45.8968 26.4355C46.3308 28.9608 45.6385 31.5089 43.9459 33.6106C42.4477 35.4705 40.3129 36.7766 38.6369 36.853H38.5377C34.9502 37.0142 31.2469 37.8222 30.9844 42.6146C30.7778 46.2022 29.4448 48.804 26.996 50.3436C25.3551 51.3768 23.301 51.879 20.7157 51.879C18.7173 51.879 16.8739 53.9766 16.3325 54.7846C16.1912 54.9957 16.0003 55.1689 15.7766 55.2892C15.5529 55.4095 15.3032 55.4733 15.0492 55.4748Z" fill="#EE702A"/>
<path d="M61.8732 16.1233C61.5102 16.1227 61.1589 15.9948 60.8806 15.7618C60.6022 15.5288 60.4145 15.2054 60.3501 14.8482C60.3026 14.5981 59.1887 9.14861 52.0116 6.42488C51.8106 6.36109 51.6248 6.25698 51.4655 6.11892C51.3062 5.98086 51.1767 5.81175 51.085 5.62194C50.9933 5.43213 50.9413 5.22561 50.9321 5.015C50.923 4.80439 50.9569 4.59413 51.0317 4.39707C51.1066 4.20001 51.2209 4.0203 51.3676 3.86892C51.5144 3.71755 51.6904 3.5977 51.885 3.51669C52.0797 3.43569 52.2888 3.39524 52.4995 3.39782C52.7103 3.4004 52.9184 3.44595 53.111 3.53169C62.0199 6.91052 63.3508 14.0112 63.4025 14.3109C63.4375 14.5115 63.4327 14.717 63.3883 14.9157C63.344 15.1144 63.2609 15.3024 63.1438 15.469C63.0267 15.6355 62.878 15.7774 62.7061 15.8865C62.5342 15.9956 62.3424 16.0697 62.1419 16.1047C62.0529 16.1179 61.9631 16.1242 61.8732 16.1233Z" fill="#EE702A"/>
</svg>
