<svg width="61" height="61" viewBox="0 0 61 61" fill="none" xmlns="http://www.w3.org/2000/svg">
<path d="M47.6562 22.8676H3.8125C1.69775 22.8676 0 24.5716 0 26.6808V49.5603C0 55.876 5.12305 61 11.4375 61H34.3125C40.627 61 45.75 55.876 45.75 49.5603H47.6562C55.0132 49.5603 61 43.5723 61 36.2139C61 28.8555 55.0191 22.8676 47.6562 22.8676ZM47.6562 41.9338H45.75V30.494H47.6562C50.8135 30.494 53.375 33.0561 53.375 36.2139C53.375 39.3718 50.8135 41.9338 47.6562 41.9338ZM12.8553 11.9879C14.3326 12.7505 15.25 14.4546 15.25 16.1944C15.25 17.7733 16.5308 19.0412 18.1094 19.0412C19.688 19.0412 20.9688 17.6363 20.9688 16.1586C20.9688 12.424 18.9636 8.93253 15.7373 7.04854C14.2611 6.18818 13.3438 4.59139 13.3438 2.88138C13.3438 1.30246 12.063 0.00476656 10.4844 0.00476656C8.90576 0.00476656 7.625 1.30246 7.625 2.88138C7.625 6.61717 9.63014 10.1075 12.8553 11.9879ZM26.199 11.9879C27.6764 12.7505 28.5938 14.4546 28.5938 16.1944C28.5938 17.7733 29.8745 19.0376 31.4531 19.0376C33.0317 19.0376 34.3125 17.6363 34.3125 16.1586C34.3125 12.424 32.3074 8.93253 29.081 7.04854C27.6049 6.18818 26.6875 4.59139 26.6875 2.88138C26.6875 1.30246 25.4067 0 23.8281 0C22.2495 0 20.9688 1.30246 20.9688 2.88138C20.9688 6.61717 22.9703 10.1075 26.199 11.9879Z" fill="#EE702A"/>
</svg>
