<svg width="59" height="51" viewBox="0 0 59 51" fill="none" xmlns="http://www.w3.org/2000/svg">
<path d="M58.0345 16.4042C58.0345 19.4665 55.5862 21.8571 51.5849 21.8571H50.7802V47.3571C50.7802 49.3687 49.1559 51 47.153 51H10.8815C8.8786 51 7.25431 49.3687 7.25431 47.3571V21.8571H6.4484C2.4438 21.8571 0 19.4665 0 16.4042C0 9.10714 10.8815 0 29.0172 0C47.153 0 58.0345 9.10714 58.0345 16.4042Z" fill="#F8A700"/>
<path d="M51.9999 15C51.9999 17.702 50.0593 19.8114 46.8878 19.8114H46.2499V44.7857C46.2499 46.5606 44.9625 48 43.3749 48H14.6249C13.0374 48 11.7499 46.5606 11.7499 44.7857L11.75 19.8114H11.1112C7.93703 19.8114 6 17.702 6 15C6 8.56138 14.6249 3 28.9999 3C43.3749 3 51.9999 8.56138 51.9999 15Z" stroke="#FAF6F2" stroke-width="2"/>
</svg>
