<svg width="58" height="52" viewBox="0 0 58 52" fill="none" xmlns="http://www.w3.org/2000/svg">
<path d="M8.95012 22.4345C8.95042 22.115 8.88556 21.7988 8.75949 21.5051C8.63342 21.2115 8.4488 20.9467 8.21691 20.7268L8.21679 20.7267C6.93087 19.5092 6.03977 17.9339 5.65872 16.2045C5.27767 14.4751 5.4242 12.6712 6.07936 11.026C6.73451 9.38075 7.86817 7.9699 9.33373 6.97587C10.7993 5.98184 12.5293 5.45033 14.3002 5.45006V5.20006L14.3002 5.45006H36.7005H36.7006C38.5936 5.44935 40.4369 6.05564 41.9599 7.17988C43.4829 8.30412 44.6053 9.88708 45.1623 11.6963C45.7192 13.5055 45.6814 15.4456 45.0544 17.2317C44.4273 19.0179 43.2441 20.5559 41.6784 21.6199L41.6783 21.62C41.3616 21.8356 41.1025 22.1252 40.9233 22.4638C40.7442 22.8024 40.6506 23.1797 40.6506 23.5627V45.1006C40.6506 45.5913 40.4557 46.0618 40.1087 46.4088C39.7617 46.7557 39.2912 46.9506 38.8005 46.9506H10.8001C9.779 46.9506 8.95012 46.1218 8.95012 45.1006V22.4345ZM8.95012 22.4345L8.70012 22.4343H8.95012V22.4345ZM49.9559 20.9083C49.7487 21.1047 49.5837 21.3414 49.471 21.6038C49.3584 21.8661 49.3004 22.1487 49.3007 22.4343M49.9559 20.9083L50.447 8.57452C49.6886 7.68022 48.7623 6.94801 47.7239 6.4173C49.3664 8.70845 50.2551 11.4646 50.2507 14.3004M49.9559 20.9083C51.0747 19.8482 51.906 18.5215 52.372 17.0523C52.8379 15.5832 52.9233 14.0198 52.6199 12.5087C52.3166 10.9976 51.6345 9.58831 50.6377 8.41282C49.7532 7.36987 48.6467 6.54131 47.4018 5.98628L49.9559 20.9083ZM49.3007 22.4343H49.0507V22.4345V45.1006C49.0507 45.5913 48.8558 46.0618 48.5088 46.4088C48.1619 46.7557 47.6913 46.9506 47.2006 46.9506H45.0857C45.2583 46.3632 45.3506 45.743 45.3506 45.1006V24.731C46.8692 23.4735 48.0949 21.899 48.9415 20.1173C49.8051 18.2998 50.2524 16.3126 50.2507 14.3004M49.3007 22.4343V45.1006C49.3007 45.6576 49.0794 46.1917 48.6856 46.5856C48.2918 46.9794 47.7576 47.2006 47.2006 47.2006H45.0067L49.3007 22.4343ZM50.2507 14.3004C50.2507 14.3004 50.2507 14.3005 50.2507 14.3006L50.0007 14.3002L50.2507 14.3C50.2507 14.3001 50.2507 14.3002 50.2507 14.3004ZM0.750009 14.3C0.750048 10.7064 2.17765 7.25987 4.71877 4.71876C7.25992 2.17761 10.7065 0.75 14.3002 0.75H43.7006C46.3308 0.750157 48.9041 1.5158 51.1066 2.95353C53.3091 4.39126 55.0456 6.43892 56.1041 8.84671C57.1627 11.2545 57.4976 13.9183 57.0681 16.5132C56.6438 19.076 55.492 21.4621 53.7507 23.3879V45.1006C53.7507 46.8378 53.0606 48.5038 51.8323 49.7322C50.6039 50.9606 48.9378 51.6507 47.2006 51.6507H10.8001C9.06295 51.6507 7.39691 50.9606 6.16853 49.7322C4.94015 48.5038 4.25006 46.8378 4.25006 45.1006V23.3881C1.99476 20.9002 0.746119 17.6603 0.750009 14.3ZM0.750009 14.3C0.750009 14.3 0.750009 14.2999 0.750009 14.2999L1.00001 14.3002H0.750009C0.750009 14.3001 0.750009 14.3001 0.750009 14.3Z" fill="#EE702A" stroke="#EE702A" stroke-width="0.5"/>
</svg>
