<svg width="14" height="14" viewBox="0 0 14 14" fill="none" xmlns="http://www.w3.org/2000/svg">
<path d="M0.35055 6.66683C0.314768 6.63947 0.28591 6.60381 0.266368 6.56282C0.246826 6.52182 0.237164 6.47667 0.238186 6.43111L0.351668 1.34073C0.353056 1.28817 0.368552 1.23699 0.396474 1.19276C0.424397 1.14853 0.463679 1.11293 0.510059 1.08983C0.55653 1.06684 0.608294 1.05725 0.659737 1.0621C0.71118 1.06695 0.760337 1.08606 0.801872 1.11735L1.89403 1.94768L1.97993 2.01316C3.19619 0.823932 4.84849 0.0974119 6.66328 0.133093C10.3029 0.204454 13.2067 3.27869 13.1366 6.98511C13.0666 10.6917 10.0486 13.6496 6.40892 13.5783C6.27832 13.5754 6.14783 13.5688 6.0176 13.5583C6.0176 13.5583 5.93021 13.5538 5.82977 13.5069L5.82623 13.505C5.77702 13.481 5.73181 13.4493 5.69225 13.4111C5.6861 13.4052 5.67958 13.3999 5.6738 13.3936L5.67026 13.3904C5.66765 13.3875 5.66672 13.3847 5.66448 13.3818C5.58358 13.2898 5.53978 13.1701 5.54187 13.0467C5.54187 13.0415 5.54336 13.0368 5.54355 13.0317L5.57616 11.3036H5.57765C5.57765 11.2983 5.57634 11.2934 5.57634 11.2881C5.57753 11.2233 5.59123 11.1594 5.61667 11.1001C5.6421 11.0407 5.67877 10.9871 5.72458 10.9422C5.77039 10.8972 5.82444 10.862 5.88363 10.8383C5.94283 10.8147 6.00602 10.8032 6.06959 10.8045V10.8039C6.19744 10.8199 6.32599 10.8295 6.45476 10.8327C8.60814 10.8751 10.394 9.12519 10.4354 6.93254C10.477 4.7397 8.75852 2.92131 6.60514 2.87899C5.69616 2.86115 4.85669 3.1669 4.18306 3.68579L4.36679 3.82585L5.45988 4.65619C5.50111 4.68786 5.53304 4.73043 5.55219 4.77928C5.57134 4.82813 5.57699 4.88139 5.56852 4.93328C5.55137 5.03881 5.47721 5.12668 5.3764 5.15875L0.604348 6.71068C0.518071 6.73914 0.424341 6.72263 0.35055 6.66683Z" fill="black"/>
</svg>
