<svg width="72" height="72" viewBox="0 0 72 72" fill="none" xmlns="http://www.w3.org/2000/svg">
<path d="M35.8359 53.4687C45.7856 53.4687 53.8515 45.4028 53.8515 35.4531C53.8515 25.5033 45.7856 17.4375 35.8359 17.4375C25.8862 17.4375 17.8203 25.5033 17.8203 35.4531C17.8203 45.4028 25.8862 53.4687 35.8359 53.4687Z" fill="#F8A700"/>
<path d="M35.1035 15.5634H35.0488C34.7297 15.5563 34.4151 15.4864 34.123 15.3577C33.8308 15.229 33.567 15.0439 33.3464 14.8132C33.1258 14.5825 32.9528 14.3105 32.8374 14.0129C32.7219 13.7153 32.6662 13.3979 32.6735 13.0787L32.9226 2.37448C32.9375 1.73 33.2078 1.11783 33.674 0.672653C34.1403 0.227474 34.7643 -0.0142532 35.4088 0.000650447C36.0533 0.0155541 36.6654 0.285867 37.1106 0.752123C37.5558 1.21838 37.7975 1.84239 37.7826 2.48687L37.5335 13.1911C37.5185 13.8255 37.2558 14.4289 36.8017 14.8722C36.3476 15.3155 35.7381 15.5636 35.1035 15.5634Z" fill="#F8A700"/>
<path d="M13.1364 36.2034H13.0787L2.37448 35.9543C2.05536 35.9469 1.74083 35.8768 1.44883 35.7478C1.15683 35.6189 0.893082 35.4337 0.672652 35.2029C0.452222 34.972 0.279423 34.7 0.16412 34.4023C0.048818 34.1047 -0.00672984 33.7872 0.000649693 33.4681C0.00802923 33.149 0.078192 32.8345 0.20713 32.5425C0.336068 32.2505 0.521256 31.9867 0.752122 31.7663C0.982989 31.5459 1.25501 31.3731 1.55266 31.2578C1.85031 31.1424 2.16775 31.0869 2.48687 31.0943L13.1911 31.3403C13.8356 31.3476 14.4508 31.6105 14.9014 32.0714C15.352 32.5322 15.601 33.1532 15.5938 33.7977C15.5865 34.4422 15.3236 35.0574 14.8627 35.508C14.4019 35.9585 13.7809 36.2076 13.1364 36.2004V36.2034Z" fill="#F8A700"/>
<path d="M69.4792 36.7896H69.4215L58.7173 36.5436C58.0728 36.5287 57.4606 36.2583 57.0154 35.7921C56.5702 35.3258 56.3285 34.7018 56.3434 34.0573C56.3583 33.4129 56.6286 32.8007 57.0949 32.3555C57.5612 31.9103 58.1852 31.6686 58.8296 31.6835L69.5339 31.9326C70.1784 31.9398 70.7936 32.2028 71.2442 32.6637C71.6948 33.1245 71.9438 33.7455 71.9366 34.3899C71.9293 35.0344 71.6664 35.6496 71.2055 36.1002C70.7447 36.5508 70.1237 36.7999 69.4792 36.7926V36.7896Z" fill="#F8A700"/>
<path d="M18.9622 21.7812C18.5174 21.7804 18.0813 21.6574 17.7016 21.4258L8.55559 15.858C8.00335 15.5233 7.60669 14.9829 7.45289 14.3557C7.29908 13.7285 7.40073 13.066 7.73546 12.5137C8.07018 11.9615 8.61058 11.5648 9.23776 11.411C9.86494 11.2572 10.5275 11.3589 11.0798 11.6936L20.2288 17.2614C20.6828 17.5367 21.0341 17.9532 21.229 18.4472C21.4239 18.9411 21.4516 19.4852 21.308 19.9964C21.1643 20.5076 20.8572 20.9577 20.4336 21.2778C20.0099 21.5979 19.4931 21.7705 18.9622 21.7691V21.7812Z" fill="#F8A700"/>
<path d="M52.0164 22.3584C51.4857 22.3591 50.9693 22.1861 50.5462 21.8657C50.1231 21.5454 49.8165 21.0953 49.6732 20.5843C49.53 20.0733 49.5579 19.5294 49.7529 19.0358C49.9478 18.5422 50.299 18.126 50.7528 17.8507L59.8988 12.3011C60.1714 12.1212 60.4775 11.9981 60.7988 11.9391C61.1201 11.8801 61.45 11.8865 61.7687 11.958C62.0875 12.0294 62.3886 12.1643 62.654 12.3548C62.9194 12.5452 63.1437 12.7872 63.3135 13.0662C63.4832 13.3453 63.595 13.6558 63.6421 13.979C63.6892 14.3023 63.6706 14.6317 63.5874 14.9476C63.5043 15.2635 63.3583 15.5594 63.1583 15.8176C62.9582 16.0758 62.7081 16.291 62.4229 16.4504L53.2769 22.0182C52.896 22.2453 52.4598 22.3631 52.0164 22.3584Z" fill="#F8A700"/>
<path d="M36.3858 71.1411C35.7507 71.1412 35.1407 70.8927 34.6865 70.4488C34.2324 70.0048 33.9701 69.4007 33.9558 68.7657L33.7067 58.0615C33.692 57.4175 33.9337 56.794 34.3785 56.3281C34.8234 55.8621 35.435 55.5919 36.079 55.5768H36.1367C36.7713 55.5766 37.3808 55.8247 37.8349 56.268C38.289 56.7113 38.5517 57.3147 38.5667 57.9491L38.8128 68.6533C38.8274 69.2973 38.5858 69.9208 38.141 70.3868C37.6961 70.8527 37.0845 71.1229 36.4405 71.138L36.3858 71.1411Z" fill="#F8A700"/>
<path d="M9.81899 60.0085C9.2892 60.0082 8.77405 59.8347 8.35197 59.5145C7.9299 59.1943 7.62402 58.7449 7.48094 58.2348C7.33785 57.7247 7.36538 57.1819 7.55934 56.6889C7.75331 56.1958 8.10307 55.7797 8.55538 55.5039L17.7014 49.9361C18.252 49.601 18.9132 49.4983 19.5395 49.6507C20.1659 49.8031 20.706 50.198 21.0411 50.7486C21.3763 51.2993 21.4789 51.9605 21.3266 52.5868C21.1742 53.2131 20.7792 53.7533 20.2286 54.0884L11.0796 59.6562C10.7 59.8879 10.2637 60.0099 9.81899 60.0085Z" fill="#F8A700"/>
<path d="M62.2657 59.0274C61.8212 59.0275 61.3852 58.9056 61.0051 58.6751L51.8622 53.1073C51.5895 52.9414 51.3522 52.7234 51.1638 52.4657C50.9754 52.2081 50.8396 51.9158 50.7642 51.6057C50.6887 51.2956 50.6751 50.9736 50.7241 50.6582C50.7731 50.3429 50.8837 50.0402 51.0496 49.7676C51.2156 49.4949 51.4336 49.2576 51.6912 49.0692C51.9489 48.8808 52.2411 48.745 52.5512 48.6696C52.8613 48.5941 53.1833 48.5805 53.4987 48.6295C53.8141 48.6785 54.1167 48.7891 54.3894 48.955L63.5323 54.5228C63.9849 54.7988 64.3347 55.2152 64.5286 55.7085C64.7226 56.2018 64.7498 56.745 64.6064 57.2552C64.4629 57.7655 64.1565 58.2148 63.7339 58.5348C63.3113 58.8547 62.7957 59.0278 62.2657 59.0274Z" fill="#F8A700"/>
</svg>
