<svg width="52" height="48" viewBox="0 0 52 48" fill="none" xmlns="http://www.w3.org/2000/svg">
<path d="M49.9179 25.5107C50.8821 26.475 51.4286 27.7821 51.4286 29.1429C51.4286 30.5036 50.8821 31.8107 49.9179 32.775C48.9536 33.7393 47.6464 34.2857 46.2857 34.2857H5.14286C3.77893 34.2857 2.47071 33.7393 1.50643 32.775C0.542143 31.8107 0 30.5036 0 29.1429C0 27.7821 0.542143 26.475 1.50643 25.5107C2.47071 24.5464 3.77893 24 5.14286 24H46.2857C47.6464 24 48.9536 24.5464 49.9179 25.5107ZM49.2107 38.2179C49.5321 38.5393 49.7143 38.9786 49.7143 39.4286V41.1429C49.7143 42.8679 48.9964 44.7107 47.7107 45.9964C46.425 47.2821 44.5821 48 42.8571 48H8.57143C6.75321 48 5.00893 47.2821 3.72321 45.9964C2.43643 44.7107 1.71429 42.8679 1.71429 41.1429V39.4286C1.71429 38.9786 1.89536 38.5393 2.21679 38.2179C2.53821 37.8964 2.97429 37.7143 3.42857 37.7143H48C48.45 37.7143 48.8893 37.8964 49.2107 38.2179ZM3.68464 20.2286C3.20679 19.9929 2.78893 19.6607 2.46107 19.2429C2.13321 18.825 1.90607 18.3429 1.79464 17.8286C1.68321 17.3036 1.69286 16.7679 1.82036 16.2536C4.17643 6.96643 13.9821 0 25.7143 0C37.4464 0 47.25 6.96643 49.6071 16.2536C49.7357 16.7679 49.7464 17.3036 49.6286 17.8286C49.5214 18.3429 49.2964 18.825 48.9643 19.2429C48.5464 19.6607 48.225 19.9929 47.7429 20.2286C47.2714 20.4536 46.7464 20.5714 46.2107 20.5714H5.21464C4.68536 20.5714 4.16143 20.4536 3.68464 20.2286ZM38.2179 9.075C37.8964 9.39643 37.7143 9.83571 37.7143 10.2857C37.7143 10.6286 37.8107 10.9607 38.0036 11.2393C38.1964 11.5179 38.3679 11.7429 38.775 11.8714C39.0857 11.9036 39.4286 12.0321 39.7607 11.9679C40.0929 11.9036 40.4036 11.7429 40.6393 11.4964C40.8857 11.2607 41.0464 10.95 41.1107 10.6179C41.175 10.2857 41.0464 9.94286 41.0143 9.63214C40.8857 9.225 40.6607 9.05357 40.3821 8.86071C40.1036 8.66786 39.7714 8.475 39.4286 8.475C38.9786 8.475 38.5393 8.75357 38.2179 9.075ZM24.5036 5.64536C24.1821 5.96679 24 6.40286 24 6.85714C24 7.19571 24.0964 7.53214 24.2893 7.81071C24.4821 8.08929 24.6536 8.31429 25.0607 8.44286C25.3714 8.475 25.7143 8.60357 26.0464 8.53929C26.3786 8.475 26.6893 8.31429 26.925 8.06786C27.1714 7.83214 27.3321 7.52143 27.3964 7.19143C27.4607 6.85929 27.3321 6.51429 27.3 6.20143C27.1714 5.8875 26.9464 5.61964 26.6679 5.43214C26.3893 5.24357 26.0571 5.04643 25.7143 5.04643C25.2643 5.04643 24.825 5.32393 24.5036 5.64536ZM10.7893 9.075C10.4679 9.39643 10.2857 9.83571 10.2857 10.2857C10.2857 10.6286 10.3821 10.9607 10.575 11.2393C10.7679 11.5179 10.9393 11.7429 11.3464 11.8714C11.6571 11.9036 12 12.0321 12.3321 11.9679C12.6643 11.9036 12.975 11.7429 13.2107 11.4964C13.4571 11.2607 13.6179 10.95 13.6821 10.6179C13.7464 10.2857 13.6179 9.94286 13.5857 9.63214C13.4571 9.225 13.2321 9.05357 12.9536 8.86071C12.675 8.66786 12.3429 8.475 12 8.475C11.55 8.475 11.1107 8.75357 10.7893 9.075Z" fill="#F8A700"/>
</svg>
