<svg width="261" height="279" viewBox="0 0 261 279" fill="none" xmlns="http://www.w3.org/2000/svg">
<path d="M28.8145 142.029C28.8145 142.029 93.5454 115.366 229.905 139.397L194.594 197.266L50.699 178.989L28.8145 142.029Z" fill="#D1D3D4"/>
<path d="M69.9169 86.702L45.3787 137.236C44.0233 136.969 42.7251 136.656 41.4524 136.312C3.90689 125.931 -3.31584 78.0417 1.18961 69.5025C2.04234 67.8584 3.34052 67.6672 4.94415 69.4643C15.1387 80.9476 69.9169 86.702 69.9169 86.702Z" fill="#F6DD38"/>
<path d="M217.298 156.176C217.291 169.297 214.389 182.255 208.8 194.122C203.211 205.99 195.073 216.475 184.968 224.828C174.863 233.18 163.039 239.194 150.344 242.439C137.648 245.685 124.393 246.081 111.526 243.601C98.6594 241.121 86.4987 235.825 75.9132 228.092C65.3277 220.359 56.5789 210.379 50.2921 198.867C44.0053 187.355 40.3357 174.594 39.5456 161.496C38.7556 148.399 40.8646 135.289 45.722 123.102C46.9205 120.1 48.2844 117.166 49.8074 114.314C55.2745 104.044 62.7038 94.9506 71.6729 87.5497C73.512 86.0203 75.3893 84.5674 77.3429 83.2164C93.9304 71.5905 113.984 65.9824 134.186 67.3197C154.389 68.6569 173.531 76.8593 188.446 90.5703C192.696 94.4585 196.55 98.7598 199.951 103.411C202.53 106.879 204.844 110.536 206.875 114.353C209.466 119.202 211.596 124.284 213.238 129.532C215.929 138.157 217.298 147.14 217.298 156.176Z" fill="#F6DD38"/>
<path d="M86.3096 150.408C86.0094 150.748 85.6793 151.059 85.3232 151.339C85.7751 150.893 86.0996 150.581 86.3096 150.408Z" fill="#DFC010"/>
<path d="M217.298 156.176C217.291 169.297 214.389 182.254 208.8 194.122C203.211 205.99 195.073 216.475 184.968 224.827C174.863 233.18 163.039 239.194 150.344 242.439C137.648 245.685 124.393 246.081 111.526 243.601C98.6594 241.121 86.4987 235.825 75.9132 228.092C65.3277 220.359 56.5789 210.379 50.2921 198.867C44.0053 187.355 40.3357 174.594 39.5456 161.496C38.7556 148.399 40.8646 135.288 45.722 123.102C45.8238 123.739 48.0638 136.835 62.7192 133.986L51.9011 142.736C51.9011 142.736 61.0647 145.253 69.8211 140.238C69.8211 140.238 57.7302 154.608 56.2283 156.08C57.9911 155.73 75.0838 160.28 85.272 151.396C81.772 154.997 72.6656 166.614 86.4938 179.066C86.4938 179.066 80.2447 168.628 86.4938 161.949C86.4938 161.949 87.3211 184.89 98.1711 185.744C98.1711 185.744 94.4229 177.403 96.0838 174.051C96.0838 174.051 121.538 191.594 161.941 173.643C161.941 173.643 165.288 177.403 164.436 183.654C169.053 179.092 171.868 173.013 172.365 166.537C172.365 166.537 176.947 169.462 176.119 180.321C176.119 180.321 196.846 174.012 187.313 154.417C187.313 154.417 195.707 151.511 201.548 158.189C201.548 158.189 212.367 146.496 201.548 139.409C201.548 139.409 211.546 140.627 212.449 148.86L213.245 129.494C215.937 138.131 217.304 147.127 217.298 156.176Z" fill="#EDCB20"/>
<path d="M63.7822 94.8717C63.7822 94.8717 91.3431 13.7937 128.055 10.6138C164.767 7.43394 188.834 23.1295 191.265 93.1766L63.7822 94.8717Z" fill="#F6DD38"/>
<path d="M126.299 67.4187C126.299 67.4187 133.458 61.5814 136.716 60.7403C138.281 60.3388 145.046 47.6064 154.731 62.5182C156.704 66.4947 156.5 73.0202 154.833 75.0403C154.833 75.0403 157.818 82.3623 155.005 83.8917C152.192 85.4212 134.559 89.9393 127.329 81.3109C127.329 81.3109 119.369 77.2324 126.299 67.4187Z" fill="#EFC1A9"/>
<path d="M129.933 65.3859C129.933 65.3859 137.754 63.7099 139.204 61.5624C139.204 61.5624 145.11 69.7384 149.921 66.1188C154.732 62.4991 153.23 61.5624 153.23 61.5624C153.23 61.5624 158.136 73.1604 153.453 74.4923C148.769 75.8241 131.046 72.8354 129.933 65.3859Z" fill="#D3A59C"/>
<path d="M124.275 75.5756C125.437 74.9679 126.665 74.4954 127.934 74.1673C132.898 72.7844 142.628 71.7776 155.4 78.73C155.4 78.73 151.995 72.3575 144.461 71.3825C136.926 70.4075 135.234 70.5859 124.275 75.5756Z" fill="#996045"/>
<path d="M147.177 65.9084C148.59 65.9084 149.736 64.7615 149.736 63.3467C149.736 61.9319 148.59 60.7849 147.177 60.7849C145.764 60.7849 144.619 61.9319 144.619 63.3467C144.619 64.7615 145.764 65.9084 147.177 65.9084Z" fill="#FFF3EE"/>
<path d="M128.348 44.9301C128.337 47.1844 127.663 49.3856 126.411 51.2588C125.158 53.1319 123.382 54.5939 121.305 55.4621C119.227 56.3303 116.94 56.5662 114.73 56.1404C112.519 55.7146 110.483 54.6459 108.875 53.0678C108.875 53.0678 108.875 53.0678 108.837 53.0232C105.763 50.8183 102.11 41.1384 102.11 41.1384L106.037 41.4634C106.171 40.9988 106.346 40.5467 106.559 40.1125L103.154 37.2448L107.952 37.8821C108.247 37.491 108.57 37.1225 108.919 36.7796L106.406 34.5365C109.465 33.826 112.601 33.5006 115.741 33.5679C115.745 33.5719 115.749 33.5752 115.754 33.5774C115.759 33.5796 115.764 33.5808 115.77 33.5808C115.775 33.5808 115.781 33.5796 115.786 33.5774C115.791 33.5752 115.795 33.5719 115.799 33.5679C120.056 33.7781 122.875 35.0208 124.708 36.6267C124.841 36.7414 124.981 36.8561 125.077 36.9517C126.399 38.3188 127.368 39.9876 127.902 41.8139C128.039 42.3033 128.141 42.8015 128.208 43.3051C128.208 43.458 128.246 43.5982 128.265 43.7321C128.283 43.8332 128.283 43.9368 128.265 44.0379C128.313 44.3331 128.341 44.6312 128.348 44.9301Z" fill="#FAEA92"/>
<path d="M124.733 36.6075C122.875 35.0017 120.056 33.759 115.824 33.5487C116.198 33.5084 116.574 33.4872 116.951 33.485C119.849 33.4881 122.635 34.6059 124.733 36.6075Z" fill="#FAEA92"/>
<path d="M127.928 41.7948C127.394 39.9684 126.424 38.2996 125.103 36.9325C126.478 38.2582 127.457 39.9422 127.928 41.7948Z" fill="#FAEA92"/>
<path d="M155.934 50.1428C155.934 56.4708 160.23 61.5816 165.512 61.5816C166.81 61.5614 168.088 61.2545 169.254 60.6828C170.42 60.1111 171.445 59.2887 172.257 58.2742C172.257 58.2742 172.257 58.2742 172.289 58.236C174.866 56.0247 177.927 46.3448 177.927 46.3448L174.637 46.6762C174.523 46.214 174.376 45.7605 174.198 45.3188L177.055 42.4512L173.034 43.0884C172.788 42.7019 172.518 42.3316 172.225 41.9796L174.332 39.7365C171.782 39.0309 169.143 38.7045 166.498 38.7679H166.453C162.883 38.9781 160.516 40.2208 158.963 41.8267C158.855 41.9304 158.753 42.0411 158.658 42.158C157.519 43.5806 156.71 45.2394 156.291 47.0139C156.174 47.5053 156.087 48.0032 156.03 48.5051C156.03 48.6644 156.03 48.7982 155.979 48.9321C155.963 49.0356 155.963 49.1408 155.979 49.2443C155.945 49.5425 155.93 49.8427 155.934 50.1428Z" fill="#FAEA92"/>
<path d="M158.957 41.8139C160.51 40.2081 162.877 38.9654 166.447 38.7551C166.134 38.7171 165.82 38.698 165.505 38.6978C164.254 38.7167 163.022 39.0048 161.893 39.5425C160.763 40.0801 159.762 40.8548 158.957 41.8139Z" fill="#FAEA92"/>
<path d="M156.291 47.0012C156.71 45.2266 157.519 43.5678 158.658 42.1453C157.472 43.5377 156.658 45.2083 156.291 47.0012Z" fill="#FAEA92"/>
<path d="M117.587 54.6354C123.137 54.6354 127.635 50.1304 127.635 44.5731C127.635 39.0159 123.137 34.5109 117.587 34.5109C112.038 34.5109 107.539 39.0159 107.539 44.5731C107.539 50.1304 112.038 54.6354 117.587 54.6354Z" fill="#DDC9AC"/>
<path d="M163.748 59.1472C167.91 59.1472 171.283 55.1244 171.283 50.1619C171.283 45.1995 167.91 41.1766 163.748 41.1766C159.587 41.1766 156.214 45.1995 156.214 50.1619C156.214 55.1244 159.587 59.1472 163.748 59.1472Z" fill="#DDC9AC"/>
<path d="M117.587 52.4241C121.917 52.4241 125.427 48.9091 125.427 44.5732C125.427 40.2372 121.917 36.7222 117.587 36.7222C113.257 36.7222 109.747 40.2372 109.747 44.5732C109.747 48.9091 113.257 52.4241 117.587 52.4241Z" fill="#32150F"/>
<path d="M163.748 57.7006C167.242 57.7006 170.074 54.3254 170.074 50.1619C170.074 45.9984 167.242 42.6232 163.748 42.6232C160.255 42.6232 157.423 45.9984 157.423 50.1619C157.423 54.3254 160.255 57.7006 163.748 57.7006Z" fill="#32150F"/>
<path d="M114.443 44.5796C116.165 44.5796 117.562 43.1815 117.562 41.457C117.562 39.7325 116.165 38.3345 114.443 38.3345C112.721 38.3345 111.325 39.7325 111.325 41.457C111.325 43.1815 112.721 44.5796 114.443 44.5796Z" fill="white"/>
<path d="M160.204 50.506C161.74 50.506 162.985 49.2592 162.985 47.7212C162.985 46.1832 161.74 44.9364 160.204 44.9364C158.668 44.9364 157.423 46.1832 157.423 47.7212C157.423 49.2592 158.668 50.506 160.204 50.506Z" fill="white"/>
<path d="M108.767 70.0251C114.067 70.0251 118.364 67.2633 118.364 63.8565C118.364 60.4497 114.067 57.6879 108.767 57.6879C103.467 57.6879 99.1709 60.4497 99.1709 63.8565C99.1709 67.2633 103.467 70.0251 108.767 70.0251Z" fill="#FFCCC0"/>
<path d="M168.489 75.6839C172.77 75.6839 176.24 72.9222 176.24 69.5153C176.24 66.1085 172.77 63.3467 168.489 63.3467C164.208 63.3467 160.738 66.1085 160.738 69.5153C160.738 72.9222 164.208 75.6839 168.489 75.6839Z" fill="#FFCCC0"/>
<path d="M187.809 100.339L189.559 110.491C189.559 110.491 167.204 107.528 160.923 102.085C160.923 102.085 129.741 112.447 113.934 101.079L90.0959 100.339C90.0959 100.339 89.4913 94.9737 95.8931 93.8649L75.8604 95.9041C75.8604 95.9041 68.5931 99.9698 63.7822 94.8718C64.4186 94.1262 65.2777 91.8512 66.194 89.1365C67.8486 84.236 69.7195 77.9271 70.954 76.7355C83.5159 83.8472 131.008 105.329 185.983 89.6335L191.01 87.9703C195.198 93.2786 194.918 100.492 198.265 106.839C194.975 105.813 189.903 103.672 187.809 100.339Z" fill="#EDCB20"/>
<path d="M215.543 138.536L205.622 118.068L191.023 87.9957C191.023 87.9957 245.751 82.2605 255.99 70.7899C266.229 59.3193 264.072 129.029 215.543 138.536Z" fill="#F6DD38"/>
<path d="M45.7223 123.102L41.4523 136.293C3.90689 125.912 -3.31584 78.0227 1.18961 69.4835C1.18961 69.5026 16.9523 112.122 45.7223 123.102Z" fill="#EDCB20"/>
<path d="M215.542 138.536L205.621 118.068C210.61 117.8 245.591 114.276 255.989 70.7643C266.203 59.3001 264.071 129.029 215.542 138.536Z" fill="#EDCB20"/>
<path d="M28.8145 142.194L45.7227 160.968L69.8154 140.289L93.2145 160.968L114.444 140.289L134.527 160.968L158.658 140.289L177.927 157.163L201.543 139.409L217.299 157.17L229.886 139.409C229.886 139.409 244.866 267.988 142.412 277.56C39.9572 287.131 22.139 181.589 28.8145 142.194Z" fill="url(#paint0_linear_40_306)"/>
<path d="M205.113 26.0991C122.653 -32.6239 63.9482 26.0991 63.9482 26.0991L85.3237 20.88V33.4849L111.326 22.9001L131.053 30.4643L149.768 23.907L166.485 33.4658L181.816 23.907L205.113 26.0991Z" fill="url(#paint1_linear_40_306)"/>
<path d="M128.978 77.7105C128.978 77.7105 137.639 72.4404 152.523 78.7301C154.757 79.8517 149.94 84.1595 142.532 83.8281C135.125 83.4968 125.974 79.5267 128.978 77.7105Z" fill="#D3A59C"/>
<path d="M170.94 58.5035C170.94 58.5035 177.189 66.2398 177.87 71.682C178.551 77.1241 174.23 81.4893 169.584 80.3869C164.939 79.2844 163.857 75.0085 165.098 70.8663C166.841 65.029 170.94 58.5035 170.94 58.5035Z" fill="#7DE0FF"/>
<path d="M172.206 64.9718C173.575 66.009 174.663 67.3743 175.368 68.9421C176.073 70.5099 176.373 72.23 176.241 73.9444" fill="white"/>
<defs>
<linearGradient id="paint0_linear_40_306" x1="129.118" y1="139.409" x2="129.118" y2="278.172" gradientUnits="userSpaceOnUse">
<stop stop-color="#F2F2F2"/>
<stop offset="1" stop-color="#E6E7E8"/>
</linearGradient>
<linearGradient id="paint1_linear_40_306" x1="44206.1" y1="4098.55" x2="75520.6" y2="4098.55" gradientUnits="userSpaceOnUse">
<stop stop-color="#F2F2F2"/>
<stop offset="1" stop-color="#E6E7E8"/>
</linearGradient>
</defs>
</svg>
