<svg width="22" height="17" viewBox="0 0 22 17" fill="none" xmlns="http://www.w3.org/2000/svg">
<g clip-path="url(#clip0_136_293)">
<path d="M20.5974 11.1676H20.0914V7.84354C20.0914 7.45302 19.9301 7.07788 19.6454 6.80113L16.4858 3.72926C16.2011 3.45252 15.8153 3.2957 15.4136 3.2957H14.0188V1.81972C14.0188 1.00486 13.3388 0.34375 12.5007 0.34375H2.37972C1.54157 0.34375 0.861572 1.00486 0.861572 1.81972V11.6595C0.861572 12.4744 1.54157 13.1355 2.37972 13.1355H2.88576C2.88576 14.7652 4.24577 16.0875 5.92205 16.0875C7.59833 16.0875 8.95834 14.7652 8.95834 13.1355H13.0067C13.0067 14.7652 14.3667 16.0875 16.043 16.0875C17.7193 16.0875 19.0793 14.7652 19.0793 13.1355H20.5974C20.8758 13.1355 21.1035 12.9141 21.1035 12.6435V11.6595C21.1035 11.3889 20.8758 11.1676 20.5974 11.1676ZM5.92205 14.6115C5.08391 14.6115 4.40391 13.9504 4.40391 13.1355C4.40391 12.3207 5.08391 11.6595 5.92205 11.6595C6.76019 11.6595 7.44019 12.3207 7.44019 13.1355C7.44019 13.9504 6.76019 14.6115 5.92205 14.6115ZM16.043 14.6115C15.2049 14.6115 14.5249 13.9504 14.5249 13.1355C14.5249 12.3207 15.2049 11.6595 16.043 11.6595C16.8811 11.6595 17.5612 12.3207 17.5612 13.1355C17.5612 13.9504 16.8811 14.6115 16.043 14.6115ZM18.5732 8.21561H14.0188V4.77167H15.4136L18.5732 7.84354V8.21561Z" fill="#EE702A"/>
</g>
<defs>
<clipPath id="clip0_136_293">
<rect width="20.2419" height="15.7437" fill="white" transform="translate(0.86145 0.34375)"/>
</clipPath>
</defs>
</svg>
