<svg width="7" height="7" viewBox="0 0 7 7" fill="none" xmlns="http://www.w3.org/2000/svg">
<path d="M5.84446 3.12532C5.76182 3.12532 5.68257 3.15812 5.62413 3.2165C5.5657 3.27487 5.53287 3.35405 5.53287 3.43661V5.30434C5.53287 5.3869 5.50004 5.46608 5.44161 5.52446C5.38317 5.58284 5.30392 5.61563 5.22128 5.61563H1.4822C1.39956 5.61563 1.3203 5.58284 1.26187 5.52446C1.20343 5.46608 1.1706 5.3869 1.1706 5.30434V1.56888C1.1706 1.48632 1.20343 1.40714 1.26187 1.34876C1.3203 1.29038 1.39956 1.25759 1.4822 1.25759H3.35174C3.43438 1.25759 3.51363 1.22479 3.57206 1.16641C3.6305 1.10804 3.66333 1.02886 3.66333 0.946299C3.66333 0.86374 3.6305 0.784562 3.57206 0.726184C3.51363 0.667806 3.43438 0.63501 3.35174 0.63501H1.4822C1.23428 0.63501 0.996516 0.733399 0.821212 0.908533C0.645909 1.08367 0.547424 1.3212 0.547424 1.56888V5.30434C0.547424 5.55202 0.645909 5.78955 0.821212 5.96469C0.996516 6.13982 1.23428 6.23821 1.4822 6.23821H5.22128C5.4692 6.23821 5.70696 6.13982 5.88226 5.96469C6.05757 5.78955 6.15605 5.55202 6.15605 5.30434V3.43661C6.15605 3.35405 6.12322 3.27487 6.06479 3.2165C6.00635 3.15812 5.9271 3.12532 5.84446 3.12532Z" fill="#EE702A"/>
<path d="M4.59828 1.25759H5.09059L3.13071 3.2125C3.10151 3.24144 3.07833 3.27587 3.06251 3.31381C3.04669 3.35174 3.03854 3.39243 3.03854 3.43352C3.03854 3.47462 3.04669 3.5153 3.06251 3.55324C3.07833 3.59117 3.10151 3.6256 3.13071 3.65454C3.15968 3.68372 3.19414 3.70687 3.23211 3.72268C3.27008 3.73848 3.3108 3.74662 3.35194 3.74662C3.39307 3.74662 3.4338 3.73848 3.47177 3.72268C3.50973 3.70687 3.5442 3.68372 3.57316 3.65454L5.53304 1.69963V2.19147C5.53304 2.27403 5.56587 2.35321 5.6243 2.41158C5.68273 2.46996 5.76199 2.50276 5.84463 2.50276C5.92726 2.50276 6.00652 2.46996 6.06495 2.41158C6.12338 2.35321 6.15621 2.27403 6.15621 2.19147V0.946301C6.15621 0.863742 6.12338 0.784563 6.06495 0.726185C6.00652 0.667806 5.92726 0.63501 5.84463 0.63501H4.59828C4.51564 0.63501 4.43639 0.667806 4.37796 0.726185C4.31952 0.784563 4.2867 0.863742 4.2867 0.946301C4.2867 1.02886 4.31952 1.10804 4.37796 1.16642C4.43639 1.2248 4.51564 1.25759 4.59828 1.25759Z" fill="#EE702A"/>
</svg>
