<svg width="61" height="61" viewBox="0 0 61 61" fill="none" xmlns="http://www.w3.org/2000/svg">
<path d="M58.2049 2.78612C54.5048 -0.93001 48.4651 -0.926436 44.7674 2.78985L2.91356 44.6488C0.432156 47.027 -0.56374 50.5656 0.31303 53.8945C1.1898 57.2234 3.77603 59.81 7.10562 60.6869C10.434 61.5638 13.9721 60.5678 16.3498 58.086L58.1989 16.2304C61.9097 12.5274 61.9216 6.48675 58.2049 2.78612ZM52.2724 14.1001C49.9387 16.4342 47.8182 16.7832 46.1088 17.0799C44.5637 17.3475 43.4487 17.5407 41.9775 19.0124C40.5063 20.4839 40.3133 21.5991 40.0452 23.1456C39.748 24.8553 39.3911 26.9809 37.0576 29.3149C34.7239 31.6489 32.5987 32.0052 30.8892 32.3031C29.3406 32.5676 28.2208 32.7701 26.7555 34.2356C25.2843 35.707 25.0913 36.8222 24.8233 38.3675C24.5278 40.0737 24.1705 42.2064 21.8356 44.5416C19.5019 46.8757 17.3767 47.2319 15.6672 47.5298C14.1162 47.7943 13.0083 47.9849 11.5347 49.4623C10.7916 50.2055 9.58821 50.2055 8.84486 49.4623C8.10175 48.7191 8.10175 47.5143 8.84486 46.772C11.1785 44.438 13.3038 44.0817 15.0132 43.785C16.5583 43.5176 17.6733 43.3241 19.1445 41.8525C20.6157 40.3811 20.8087 39.2659 21.0768 37.7194C21.374 36.0096 21.731 33.8841 24.0644 31.5501C26.3979 29.216 28.5233 28.8598 30.2328 28.5619C31.7779 28.2943 32.8929 28.1009 34.3641 26.6294C35.8353 25.1578 36.0283 24.0427 36.2963 22.4974C36.5936 20.7877 36.9506 18.6622 39.284 16.3281C41.6177 13.9941 43.7429 13.6378 45.4524 13.3412C46.9975 13.0736 48.1065 12.8866 49.5777 11.4146C50.3209 10.6714 51.5266 10.6714 52.2688 11.4146C52.9038 12.158 52.9038 13.3614 52.2724 14.1001ZM3.86419 38.2984L38.4108 3.74642L37.0433 2.36434C34.0711 -0.608319 29.449 -0.801334 26.7293 1.91838L2.03679 26.6103C-0.682867 29.3387 -0.489644 33.9615 2.48232 36.9283L3.86419 38.2984ZM57.2519 22.5713L22.7052 57.1233L24.0728 58.5054C27.045 61.478 31.6671 61.6711 34.3867 58.9513L59.0816 34.2526C61.8013 31.5325 61.6083 26.9097 58.6358 23.9371L57.2519 22.5713Z" fill="#F8A700"/>
</svg>
