<svg width="35" height="37" viewBox="0 0 35 37" fill="none" xmlns="http://www.w3.org/2000/svg">
<path d="M8.06914 17.8002H7.9176C7.3741 17.7578 6.86955 17.5018 6.51448 17.0881C6.15941 16.6745 5.98278 16.1369 6.02327 15.5933L7.00359 1.91157C7.02318 1.64165 7.09574 1.37825 7.21713 1.13638C7.33852 0.894509 7.50636 0.678919 7.71107 0.501916C7.91578 0.324912 8.15334 0.189963 8.4102 0.104771C8.66706 0.0195801 8.93819 -0.0141835 9.2081 0.0054068C9.47801 0.0249971 9.74143 0.0975569 9.98329 0.218946C10.2252 0.340336 10.4407 0.508176 10.6178 0.712885C10.7948 0.917593 10.9297 1.15516 11.0149 1.41202C11.1001 1.66888 11.1339 1.94001 11.1143 2.20992L10.1245 15.8869C10.0863 16.4062 9.85325 16.8919 9.47212 17.2467C9.09098 17.6015 8.58986 17.7992 8.06914 17.8002Z" fill="#EDCB20"/>
<path d="M15.5382 23.1136C15.1166 23.1144 14.7048 22.9857 14.3586 22.745C14.0124 22.5042 13.7484 22.1631 13.6023 21.7675C13.4561 21.372 13.4349 20.9411 13.5414 20.5331C13.648 20.1251 13.8772 19.7596 14.198 19.486L22.3057 12.5718C22.5096 12.3812 22.7501 12.234 23.0125 12.139C23.275 12.0439 23.5539 12.0031 23.8326 12.019C24.1112 12.0348 24.3838 12.1069 24.6338 12.2311C24.8837 12.3552 25.106 12.5287 25.287 12.7412C25.468 12.9536 25.6041 13.2005 25.687 13.467C25.7699 13.7335 25.798 14.0141 25.7694 14.2917C25.7409 14.5694 25.6563 14.8383 25.5209 15.0824C25.3854 15.3264 25.2019 15.5405 24.9814 15.7116L16.8737 22.6069C16.5035 22.9301 16.0297 23.1098 15.5382 23.1136Z" fill="#EDCB20"/>
<path d="M32.932 32.5001H32.7805L19.1508 31.5104C18.8809 31.4908 18.6175 31.4182 18.3756 31.2968C18.1338 31.1754 17.9182 31.0076 17.7412 30.8029C17.5642 30.5982 17.4292 30.3606 17.344 30.1038C17.2588 29.8469 17.2251 29.5758 17.2447 29.3059C17.2643 29.0359 17.3368 28.7725 17.4582 28.5307C17.5796 28.2888 17.7474 28.0732 17.9521 27.8962C18.1569 27.7192 18.3944 27.5842 18.6513 27.4991C18.9081 27.4139 19.1793 27.3801 19.4492 27.3997L33.0788 28.3895C33.6125 28.4257 34.1112 28.6681 34.4694 29.0653C34.8276 29.4626 35.0172 29.9837 34.9982 30.5183C34.9791 31.0529 34.7528 31.5591 34.3672 31.9298C33.9816 32.3006 33.4669 32.5068 32.932 32.5049V32.5001Z" fill="#EDCB20"/>
<path d="M14.4391 36.2177C13.9225 36.2148 13.4257 36.0188 13.0463 35.6683C12.6669 35.3178 12.4322 34.838 12.3885 34.3233C11.4413 23.1137 2.1118 21.8113 1.71872 21.764C1.19763 21.6754 0.730356 21.3903 0.413149 20.9675C0.0959431 20.5447 -0.0470352 20.0163 0.0136674 19.4913C0.0743699 18.9662 0.334126 18.4844 0.739437 18.1451C1.14475 17.8058 1.66474 17.6349 2.1923 17.6675C6.70079 18.1885 15.4904 22.266 16.4897 33.9729C16.5342 34.5199 16.3597 35.0621 16.0044 35.4804C15.6492 35.8987 15.1423 36.1588 14.5954 36.2034L14.4391 36.2177Z" fill="#EDCB20"/>
</svg>
